<svg width="145" height="48" viewBox="0 0 145 48" fill="none" xmlns="http://www.w3.org/2000/svg">
<path d="M18.4723 22.0268C19.5803 21.4524 20.4178 21.7122 20.9847 22.806L25.0161 30.5832L26.3798 29.8764L27.1308 31.3253L23.0184 33.4569L22.2674 32.008L23.2902 31.4779L19.1815 23.5514L16.5413 28.0017L19.3909 33.4991L20.4349 32.9579L21.186 34.4068L17.3719 36.3838L16.6209 34.9349L17.6436 34.4047L17.6208 34.3084L13.5453 26.446L10.8948 30.9286L13.7444 36.4259L14.7884 35.8847L15.5395 37.3336L11.4271 39.4653L10.6761 38.0164L12.0184 37.3205L7.9871 29.5433L6.64472 30.2391L5.90473 28.8115L8.97302 27.221L10.0223 29.2453L12.1905 25.5533C12.3441 25.2934 12.563 25.0899 12.8471 24.9426C13.9551 24.3683 14.7926 24.628 15.3595 25.7218L15.6577 26.2971L17.8157 22.6375C17.9693 22.3776 18.1882 22.174 18.4723 22.0268Z" fill="#EEEEEE"/>
<path d="M29.93 28.8039L31.3822 28.234L31.9784 29.7532L27.2867 31.5943L26.6905 30.0751L28.098 29.5228L24.9067 21.3906L23.4992 21.9429L22.903 20.4237L26.1425 19.1524L29.93 28.8039ZM23.6133 15.4011C23.9261 15.2784 24.2335 15.2952 24.5355 15.4517C24.8466 15.5874 25.0665 15.8191 25.1951 16.1468C25.3178 16.4596 25.3113 16.7715 25.1756 17.0826C25.0489 17.373 24.8217 17.5824 24.494 17.711C24.1812 17.8338 23.8722 17.8347 23.567 17.7139C23.2708 17.5723 23.0613 17.3451 22.9386 17.0323C22.81 16.7046 22.8136 16.3853 22.9493 16.0742C23.0792 15.7482 23.3005 15.5238 23.6133 15.4011Z" fill="#EEEEEE"/>
<path d="M40.8386 26.8706L35.134 28.6508C34.0343 28.994 33.2717 28.7794 32.8463 28.0071C32.709 27.7817 32.5974 27.5316 32.5116 27.2567L30.1951 19.8338C29.9949 19.1923 30.0157 18.6411 30.2573 18.1801C30.5095 17.6992 31.0022 17.3443 31.7353 17.1155L37.2567 15.3925L38.1647 18.3021L36.6068 18.7883L36.1921 17.4595L31.885 18.8036L34.4874 27.1429L38.7946 25.7988L38.3799 24.47L39.9378 23.9839L40.8386 26.8706Z" fill="#EEEEEE"/>
<path d="M46.0327 13.371C47.2519 13.1045 47.993 13.573 48.2561 14.7766L48.7122 16.8634L46.8131 17.2785L46.3159 15.0042L43.1657 18.1249L44.5187 24.3147L45.6675 24.0636L46.016 25.6579L41.4909 26.6471L41.1424 25.0527L42.6195 24.7298L40.7489 16.1719L39.2718 16.4948L38.9233 14.9004L42.2996 14.1624L42.7505 16.2257L45.2398 13.79C45.4558 13.579 45.72 13.4393 46.0327 13.371Z" fill="#EEEEEE"/>
<path d="M53.584 24.2321C52.7746 24.3356 52.1799 24.2262 51.7999 23.9037C51.4179 23.5654 51.1843 23.063 51.0991 22.3964L50.1191 14.7308C50.0379 14.096 50.1158 13.5699 50.3528 13.1524C50.6036 12.7171 51.1734 12.4427 52.0622 12.329L56.4663 11.766C57.3392 11.6544 57.9518 11.7777 58.3041 12.1359C58.6543 12.4782 58.87 12.9668 58.9512 13.6017L59.9312 21.2673C60.0164 21.9338 59.9168 22.4789 59.6322 22.9024C59.3455 23.31 58.7975 23.5656 57.9881 23.6691L53.584 24.2321ZM53.0913 22.6498L58.0668 22.0137L56.959 13.3483L51.9835 13.9844L53.0913 22.6498Z" fill="#EEEEEE"/>
<path d="M68.7974 21.4016L73.8852 21.4409L73.954 12.5372L68.8415 15.6898L68.7974 21.4016ZM65.2951 27.3748L66.7831 27.3863L66.8967 12.6747L65.3847 12.663L65.3975 11.0071L68.8774 11.034L68.8563 13.7699L73.0284 11.186C73.4142 10.949 73.8231 10.8321 74.2551 10.8355C74.6871 10.8388 75.062 10.9777 75.3799 11.2522C75.7139 11.5107 75.879 11.896 75.875 12.408L75.81 20.8318C75.8043 21.5677 75.6964 22.0709 75.4863 22.3413C75.0825 22.8342 74.4646 23.0774 73.6326 23.071L68.7848 23.0336L68.751 27.4015L70.335 27.4137L70.3224 29.0456L65.2825 29.0067L65.2951 27.3748Z" fill="#EEEEEE"/>
<path d="M85.0318 11.9443C86.273 12.0739 86.8296 12.7514 86.7016 13.9768L86.4797 16.1012L84.5462 15.8992L84.7881 13.5838L80.8175 15.5579L80.1591 21.8596L81.3288 21.9818L81.1592 23.605L76.5523 23.1237L76.7218 21.5005L78.2257 21.6576L79.1359 12.945L77.6321 12.7879L77.8016 11.1648L81.2389 11.5239L81.0195 13.6244L84.1475 12.0932C84.4188 11.9606 84.7135 11.911 85.0318 11.9443Z" fill="#EEEEEE"/>
<path d="M88.4082 24.5537C87.6067 24.4008 87.0754 24.1121 86.8143 23.6877C86.5562 23.2475 86.4901 22.6974 86.616 22.0373L88.0639 14.4462C88.1838 13.8175 88.4212 13.3415 88.776 13.0183C89.1496 12.6823 89.7764 12.5983 90.6566 12.7662L95.0179 13.598C95.8823 13.7629 96.4264 14.0703 96.6501 14.5202C96.8767 14.9543 96.9301 15.4857 96.8102 16.1144L95.3623 23.7056C95.2364 24.3657 94.9724 24.8528 94.5704 25.1671C94.1714 25.4656 93.5712 25.5384 92.7696 25.3855L88.4082 24.5537ZM88.4311 22.8966L93.3583 23.8364L94.9951 15.2551L90.0679 14.3153L88.4311 22.8966Z" fill="#EEEEEE"/>
<path d="M98.625 29.6346C98.4541 30.2846 98.1615 30.737 97.747 30.992C97.3481 31.2511 96.754 31.2769 95.9648 31.0695L93.133 30.3251L93.554 28.7235L96.6179 29.5289L100.053 16.4609L98.5907 16.0765L99.0056 14.4981L102.371 15.3828L98.625 29.6346ZM102.333 10.8068C102.658 10.8922 102.897 11.0872 103.048 11.3917C103.219 11.6849 103.26 12.0017 103.171 12.3421C103.085 12.6671 102.896 12.9151 102.603 13.0862C102.329 13.2459 102.022 13.281 101.682 13.1915C101.357 13.1061 101.107 12.9245 100.932 12.6469C100.776 12.3578 100.741 12.0508 100.826 11.7258C100.916 11.3854 101.107 11.1296 101.4 10.9585C101.697 10.772 102.008 10.7214 102.333 10.8068Z" fill="#EEEEEE"/>
<path d="M104.014 18.1998C104.526 16.7007 105.562 16.2173 107.121 16.7496L110.96 18.0597C111.702 18.3129 112.19 18.6402 112.425 19.0416C112.66 19.443 112.646 20.0299 112.382 20.8021L111.662 22.9145L103.793 24.7937L103.242 26.4063L107.921 28.0032L108.371 26.6858L110.165 27.2982L109.755 28.5021C109.6 28.9563 109.321 29.3009 108.92 29.5359C108.539 29.7608 108.023 29.7622 107.372 29.54L102.715 27.9509C102.064 27.7286 101.649 27.4094 101.47 26.9933C101.311 26.5671 101.309 26.1269 101.464 25.6726L104.014 18.1998ZM104.421 22.9539L110.077 21.6129L110.72 19.7277L106.064 18.1386L104.421 22.9539Z" fill="#EEEEEE"/>
<path d="M117.579 33.7786L112.11 31.3688C111.056 30.9042 110.622 30.2411 110.81 29.3795C110.854 29.1195 110.935 28.8577 111.051 28.5941L114.187 21.4784C114.458 20.8634 114.836 20.4618 115.321 20.2734C115.827 20.0769 116.432 20.1335 117.134 20.4432L122.427 22.7756L121.198 25.5648L119.705 24.9067L120.266 23.6329L116.137 21.8134L112.614 29.8076L116.743 31.6271L117.305 30.3533L118.798 31.0114L117.579 33.7786Z" fill="#EEEEEE"/>
<path d="M129.791 21.6992L127.738 25.5546L129.454 26.4684L128.642 27.9936L126.926 27.0799L122.865 34.706L124.877 35.7776L124.11 37.2181L122.331 36.2706C121.695 35.9321 121.308 35.5178 121.171 35.0275C121.041 34.5231 121.19 33.8685 121.618 33.0635L125.273 26.2L123.706 25.3652L124.518 23.84L126.086 24.6747L128.139 20.8193L129.791 21.6992Z" fill="#EEEEEE"/>
<path d="M132.496 39.8945C131.749 41.0879 130.792 41.3196 129.626 40.5895L124.703 37.5077L126.626 34.4359L128.009 35.3019L126.952 36.9904L130.614 39.2826L131.671 37.5941L129.646 33.4103C129.443 32.9811 129.262 32.6223 129.103 32.3338C128.943 32.0454 128.825 31.7824 128.747 31.545C128.619 31.0869 128.699 30.6274 128.987 30.1663L129.713 29.0067C130.07 28.4371 130.411 28.1033 130.736 28.0051C131.366 27.8139 132.04 27.9433 132.759 28.3933L137.499 31.3605L135.588 34.4119L134.205 33.5459L135.249 31.8778L131.588 29.5856L130.518 31.2944L132.626 35.6156C132.801 35.9702 132.954 36.2832 133.086 36.5547C133.24 36.821 133.349 37.0687 133.414 37.2977C133.574 37.7948 133.532 38.24 133.286 38.6332L132.496 39.8945Z" fill="#EEEEEE"/>
</svg>
