<svg width="195" height="196" viewBox="0 0 195 196" fill="none" xmlns="http://www.w3.org/2000/svg">
<path d="M97.9143 9.02264L98.133 3.87449L98.8971 3.90695L98.863 4.71135L98.93 4.7142C99.0489 4.44392 99.2312 4.23789 99.4767 4.0961C99.7223 3.95208 100.013 3.88719 100.348 3.90142C100.688 3.91585 100.967 4.00494 101.186 4.16871C101.408 4.33033 101.576 4.55126 101.692 4.83151L101.745 4.83379C101.889 4.57349 102.095 4.37073 102.366 4.22552C102.636 4.07808 102.955 4.01218 103.324 4.02784C103.784 4.0474 104.155 4.20751 104.435 4.50819C104.716 4.80663 104.843 5.25861 104.818 5.86415L104.671 9.30965L103.88 9.27605L104.027 5.83055C104.043 5.45069 103.95 5.1748 103.749 5.00286C103.549 4.83091 103.307 4.73897 103.026 4.72701C102.664 4.71163 102.379 4.80921 102.171 5.01974C101.963 5.22803 101.851 5.49864 101.837 5.83157L101.695 9.18323L100.891 9.14906L101.04 5.62312C101.053 5.33041 100.968 5.09064 100.785 4.90382C100.603 4.71476 100.362 4.61387 100.063 4.60115C99.8574 4.59242 99.6629 4.639 99.4795 4.7409C99.2984 4.84289 99.1489 4.98876 99.0312 5.1785C98.9157 5.36611 98.8527 5.58616 98.8419 5.83865L98.7053 9.05624L97.9143 9.02264Z" fill="#EEEEEE" fill-opacity="0.5"/>
<path d="M106.008 9.48812L106.544 4.36322L107.331 4.44549L106.796 9.57039L106.008 9.48812ZM107.033 3.5509C106.88 3.53487 106.753 3.46877 106.653 3.35261C106.554 3.23668 106.513 3.10531 106.528 2.9585C106.544 2.81169 106.611 2.69171 106.731 2.59855C106.853 2.50563 106.991 2.46718 107.145 2.48322C107.298 2.49925 107.424 2.56523 107.522 2.68116C107.622 2.79733 107.665 2.92881 107.65 3.07562C107.634 3.22243 107.565 3.34229 107.443 3.43522C107.323 3.52838 107.187 3.56694 107.033 3.5509Z" fill="#EEEEEE" fill-opacity="0.5"/>
<path d="M110.675 10.1724C110.197 10.1001 109.803 9.92513 109.492 9.64738C109.181 9.36963 108.963 9.01879 108.837 8.59486C108.711 8.17094 108.687 7.70468 108.763 7.19608C108.842 6.67864 109.006 6.2364 109.256 5.86936C109.509 5.50044 109.823 5.23025 110.2 5.05877C110.579 4.88543 110.998 4.83355 111.458 4.90315C111.817 4.95736 112.129 5.07256 112.397 5.24873C112.664 5.42491 112.872 5.6463 113.019 5.91289C113.166 6.17948 113.238 6.47533 113.234 6.80045L112.451 6.68199C112.427 6.44077 112.325 6.21505 112.147 6.00481C111.971 5.7927 111.71 5.66055 111.365 5.60835C111.06 5.56217 110.78 5.60129 110.526 5.7257C110.275 5.84823 110.063 6.04353 109.891 6.31159C109.722 6.57777 109.609 6.90324 109.55 7.288C109.491 7.68161 109.501 8.03373 109.58 8.34436C109.662 8.65532 109.805 8.90874 110.008 9.10463C110.214 9.30086 110.471 9.42239 110.781 9.46924C110.984 9.50003 111.174 9.49259 111.351 9.44692C111.527 9.40126 111.683 9.32079 111.818 9.20551C111.953 9.09024 112.059 8.9434 112.136 8.76502L112.919 8.88348C112.829 9.17752 112.679 9.43183 112.468 9.64643C112.259 9.85915 112.001 10.0147 111.695 10.113C111.39 10.2095 111.05 10.2293 110.675 10.1724Z" fill="#EEEEEE" fill-opacity="0.5"/>
<path d="M114.389 10.6938L115.431 5.64765L116.18 5.80241L116.023 6.5646L116.075 6.57546C116.219 6.34479 116.427 6.17659 116.7 6.07086C116.973 5.96514 117.261 5.9435 117.563 6.00595C117.62 6.01771 117.691 6.03352 117.776 6.05336C117.861 6.0732 117.925 6.08983 117.968 6.10326L117.805 6.89173C117.78 6.87973 117.722 6.85743 117.63 6.82483C117.542 6.79049 117.446 6.76269 117.343 6.74142C117.097 6.69073 116.868 6.69695 116.654 6.76007C116.442 6.82144 116.262 6.93039 116.113 7.08691C115.967 7.24169 115.871 7.43297 115.824 7.66075L115.164 10.854L114.389 10.6938Z" fill="#EEEEEE" fill-opacity="0.5"/>
<path d="M119.883 12.0602C119.433 11.9419 119.066 11.7311 118.783 11.4277C118.502 11.1248 118.317 10.7559 118.227 10.3209C118.14 9.88638 118.165 9.41175 118.3 8.89697C118.436 8.37785 118.65 7.94944 118.94 7.61173C119.232 7.27459 119.575 7.04331 119.968 6.91787C120.364 6.793 120.787 6.7897 121.237 6.90796C121.687 7.02622 122.052 7.23677 122.334 7.5396C122.617 7.843 122.802 8.21301 122.888 8.64965C122.977 9.08686 122.953 9.56502 122.816 10.0841C122.681 10.5989 122.468 11.0238 122.176 11.3588C121.887 11.6943 121.544 11.9245 121.148 12.0494C120.754 12.1748 120.333 12.1784 119.883 12.0602ZM120.063 11.3723C120.405 11.4622 120.709 11.4485 120.976 11.3313C121.243 11.2141 121.467 11.0266 121.648 10.769C121.829 10.5113 121.963 10.216 122.051 9.88286C122.138 9.54976 122.167 9.22544 122.136 8.90991C122.106 8.59437 122.004 8.31893 121.83 8.08357C121.656 7.84821 121.398 7.68562 121.056 7.59578C120.714 7.50595 120.41 7.52072 120.143 7.64009C119.875 7.75946 119.651 7.94905 119.469 8.20887C119.288 8.46868 119.153 8.76514 119.066 9.09824C118.978 9.43134 118.95 9.75457 118.981 10.0679C119.012 10.3813 119.114 10.6546 119.289 10.8878C119.464 11.121 119.722 11.2825 120.063 11.3723Z" fill="#EEEEEE" fill-opacity="0.5"/>
<path d="M125.513 15.6329L127.977 8.99015L128.694 9.25617L128.41 10.0236L128.498 10.0563C128.583 9.99263 128.698 9.91369 128.843 9.81947C128.991 9.72392 129.175 9.65861 129.395 9.62354C129.619 9.58714 129.888 9.62728 130.202 9.74396C130.609 9.89485 130.93 10.1296 131.165 10.4481C131.399 10.7666 131.535 11.1447 131.57 11.5825C131.606 12.0203 131.53 12.4929 131.341 13.0004C131.152 13.512 130.9 13.9232 130.587 14.234C130.274 14.5427 129.926 14.7426 129.541 14.8337C129.158 14.9228 128.765 14.8926 128.362 14.7433C128.052 14.6282 127.822 14.4846 127.674 14.3127C127.526 14.1386 127.426 13.9668 127.375 13.7974C127.324 13.6259 127.287 13.486 127.266 13.3777L127.203 13.3543L126.255 15.9083L125.513 15.6329ZM127.811 11.6764C127.675 12.0412 127.609 12.3829 127.613 12.7015C127.617 13.0179 127.693 13.2929 127.84 13.5264C127.988 13.7578 128.211 13.9287 128.509 14.0392C128.819 14.1543 129.108 14.1686 129.377 14.082C129.648 13.9941 129.887 13.8302 130.096 13.5902C130.307 13.3489 130.476 13.0563 130.604 12.7124C130.73 12.3728 130.791 12.0472 130.787 11.7357C130.786 11.4229 130.711 11.1479 130.56 10.9108C130.412 10.6723 130.181 10.4948 129.867 10.3781C129.565 10.2661 129.283 10.2485 129.02 10.3253C128.759 10.4001 128.525 10.5543 128.319 10.788C128.114 11.0196 127.945 11.3157 127.811 11.6764Z" fill="#EEEEEE" fill-opacity="0.5"/>
<path d="M131.564 15.8885L133.607 11.1579L134.309 11.4611L134.001 12.1756L134.05 12.1969C134.237 12.0001 134.475 11.8775 134.764 11.8293C135.053 11.781 135.339 11.818 135.622 11.9404C135.676 11.9634 135.742 11.9933 135.821 12.0299C135.9 12.0665 135.96 12.0958 135.999 12.1176L135.68 12.8568C135.658 12.84 135.605 12.8064 135.522 12.7559C135.442 12.7043 135.354 12.6577 135.257 12.616C135.028 12.5167 134.801 12.4763 134.579 12.4948C134.36 12.5121 134.161 12.5823 133.984 12.7055C133.809 12.8275 133.676 12.9952 133.584 13.2088L132.291 16.2024L131.564 15.8885Z" fill="#EEEEEE" fill-opacity="0.5"/>
<path d="M136.778 18.3969C136.362 18.189 136.046 17.9075 135.831 17.5525C135.618 17.1985 135.512 16.7995 135.514 16.3554C135.518 15.9123 135.639 15.4527 135.877 14.9766C136.117 14.4964 136.413 14.1208 136.766 13.8497C137.121 13.5795 137.504 13.4234 137.915 13.3813C138.328 13.3402 138.743 13.4236 139.159 13.6315C139.575 13.8395 139.89 14.1204 140.103 14.4744C140.318 14.8294 140.423 15.2295 140.418 15.6746C140.416 16.1206 140.294 16.5838 140.054 17.0639C139.816 17.54 139.52 17.9122 139.166 18.1803C138.814 18.4494 138.432 18.6046 138.019 18.6457C137.608 18.6878 137.194 18.6049 136.778 18.3969ZM137.096 17.7608C137.412 17.9187 137.713 17.9676 137.998 17.9076C138.283 17.8475 138.54 17.7099 138.77 17.4948C139 17.2797 139.192 17.0181 139.346 16.71C139.5 16.4019 139.594 16.0903 139.629 15.7753C139.664 15.4602 139.621 15.1697 139.499 14.9037C139.376 14.6376 139.157 14.4257 138.841 14.2677C138.525 14.1098 138.224 14.0618 137.938 14.1239C137.652 14.186 137.394 14.3256 137.163 14.5427C136.932 14.7598 136.739 15.0224 136.585 15.3305C136.431 15.6385 136.337 15.9491 136.303 16.2622C136.269 16.5753 136.314 16.8638 136.437 17.1278C136.56 17.3918 136.78 17.6028 137.096 17.7608Z" fill="#EEEEEE" fill-opacity="0.5"/>
<path d="M142.609 15.5143L143.3 15.9018L140.594 20.7228C140.438 20.9998 140.256 21.2128 140.046 21.362C139.839 21.5123 139.608 21.5894 139.355 21.5933C139.103 21.5983 138.833 21.5197 138.544 21.3577C138.521 21.3446 138.498 21.3315 138.474 21.3183C138.451 21.3052 138.427 21.2921 138.404 21.2789L138.765 20.6353C138.789 20.6485 138.81 20.6605 138.83 20.6715C138.849 20.6824 138.871 20.6944 138.894 20.7076C139.105 20.8258 139.294 20.8499 139.461 20.7798C139.628 20.7117 139.775 20.5635 139.903 20.3353L142.609 15.5143ZM143.369 14.9559C143.234 14.8804 143.144 14.7694 143.098 14.623C143.054 14.4777 143.068 14.3407 143.14 14.212C143.212 14.0833 143.322 13.9999 143.469 13.9619C143.618 13.925 143.76 13.9443 143.894 14.0198C144.029 14.0953 144.118 14.2057 144.162 14.351C144.208 14.4974 144.195 14.635 144.123 14.7637C144.051 14.8924 143.94 14.9753 143.791 15.0122C143.644 15.0502 143.503 15.0314 143.369 14.9559Z" fill="#EEEEEE" fill-opacity="0.5"/>
<path d="M144.295 22.6092C143.874 22.3458 143.569 22.0257 143.38 21.6488C143.194 21.2713 143.124 20.8631 143.169 20.4244C143.217 19.9849 143.381 19.5415 143.661 19.0941C143.941 18.6467 144.27 18.3034 144.646 18.0643C145.026 17.8244 145.423 17.7007 145.836 17.6932C146.253 17.6849 146.659 17.8042 147.053 18.0511C147.281 18.1935 147.481 18.372 147.656 18.5867C147.83 18.8013 147.955 19.0509 148.03 19.3355C148.106 19.6181 148.111 19.9326 148.045 20.2789C147.979 20.6252 147.818 21.0021 147.563 21.4097L147.385 21.694L144.018 19.5865L144.381 19.0064L147.065 20.6868C147.22 20.4403 147.308 20.1896 147.33 19.9345C147.355 19.6806 147.312 19.4414 147.202 19.2168C147.094 18.9934 146.918 18.8058 146.676 18.6539C146.408 18.4866 146.136 18.4081 145.857 18.4186C145.582 18.4284 145.326 18.5058 145.09 18.651C144.854 18.7961 144.661 18.9891 144.51 19.2298L144.268 19.6165C144.062 19.9464 143.944 20.2616 143.914 20.5622C143.887 20.862 143.939 21.1358 144.069 21.3833C144.2 21.629 144.401 21.8367 144.672 22.0064C144.848 22.1168 145.023 22.1918 145.196 22.2315C145.372 22.2705 145.544 22.2725 145.711 22.2372C145.879 22.2002 146.039 22.1236 146.191 22.0075L146.725 22.5954C146.52 22.7725 146.284 22.8941 146.018 22.96C145.754 23.0241 145.474 23.0284 145.179 22.9729C144.885 22.9156 144.59 22.7944 144.295 22.6092Z" fill="#EEEEEE" fill-opacity="0.5"/>
<path d="M149.046 25.8034C148.654 25.5207 148.384 25.1847 148.235 24.7956C148.085 24.4064 148.052 23.9945 148.134 23.56C148.216 23.1254 148.407 22.6996 148.708 22.2826C149.014 21.8582 149.363 21.5401 149.753 21.328C150.146 21.1155 150.55 21.0191 150.963 21.0389C151.379 21.0581 151.776 21.2038 152.153 21.4761C152.447 21.6882 152.673 21.9337 152.83 22.2127C152.987 22.4916 153.07 22.7833 153.079 23.0878C153.088 23.3923 153.017 23.6882 152.865 23.9755L152.223 23.5122C152.311 23.2864 152.324 23.0392 152.261 22.7706C152.202 22.5015 152.031 22.2648 151.748 22.0606C151.498 21.88 151.231 21.7869 150.948 21.7813C150.669 21.7752 150.391 21.8521 150.116 22.0119C149.843 22.1712 149.593 22.4087 149.366 22.7242C149.133 23.047 148.981 23.3647 148.909 23.6773C148.84 23.9913 148.851 24.2819 148.942 24.5491C149.035 24.8176 149.209 25.0435 149.462 25.2268C149.629 25.3472 149.802 25.4275 149.98 25.4676C150.157 25.5078 150.333 25.5075 150.506 25.4667C150.678 25.426 150.84 25.3439 150.99 25.2203L151.632 25.6837C151.417 25.9042 151.167 26.0615 150.881 26.1558C150.598 26.2495 150.298 26.27 149.98 26.2172C149.666 26.1639 149.354 26.0259 149.046 25.8034Z" fill="#EEEEEE" fill-opacity="0.5"/>
<path d="M157.009 25.296L156.589 25.8193L154.507 24.1479L154.927 23.6246L157.009 25.296ZM156.306 23.149L156.924 23.6445L153.85 27.4748C153.71 27.6492 153.63 27.8003 153.611 27.9281C153.594 28.0556 153.615 28.1663 153.671 28.2603C153.731 28.354 153.806 28.4373 153.896 28.5101C153.964 28.5647 154.023 28.606 154.072 28.634C154.123 28.6603 154.163 28.6813 154.194 28.6971L153.874 29.3525C153.82 29.3346 153.749 29.3034 153.661 29.2589C153.572 29.2162 153.47 29.1486 153.355 29.0562C153.18 28.9162 153.04 28.7415 152.932 28.5322C152.827 28.3242 152.781 28.0993 152.794 27.8577C152.809 27.6174 152.91 27.3804 153.098 27.1467L156.306 23.149Z" fill="#EEEEEE" fill-opacity="0.5"/>
<path d="M160.252 29.6507L159.587 29.3282C159.633 29.2099 159.66 29.08 159.669 28.9385C159.682 28.7968 159.657 28.6493 159.596 28.4961C159.535 28.3428 159.418 28.1896 159.246 28.0364C159.01 27.8268 158.766 27.7064 158.512 27.6752C158.262 27.6439 158.063 27.7109 157.916 27.8763C157.785 28.0233 157.735 28.187 157.766 28.3673C157.797 28.5477 157.901 28.7674 158.078 29.0264L158.524 29.6752C158.794 30.0651 158.937 30.4211 158.952 30.7433C158.969 31.0639 158.858 31.3587 158.619 31.6277C158.422 31.8482 158.183 31.9888 157.902 32.0496C157.622 32.1118 157.325 32.0927 157.01 31.9922C156.695 31.8917 156.388 31.7084 156.089 31.4422C155.697 31.0928 155.447 30.7184 155.342 30.3191C155.236 29.9197 155.295 29.5258 155.518 29.1374L156.204 29.4966C156.073 29.7514 156.036 29.9967 156.092 30.2326C156.151 30.47 156.301 30.6965 156.543 30.9121C156.819 31.1574 157.09 31.2937 157.356 31.321C157.625 31.3481 157.833 31.2789 157.98 31.1135C158.099 30.9799 158.152 30.8263 158.139 30.6529C158.127 30.4777 158.044 30.2813 157.891 30.0638L157.383 29.3425C157.105 28.9452 156.961 28.5853 156.952 28.2627C156.946 27.9399 157.061 27.6456 157.297 27.38C157.491 27.1628 157.723 27.025 157.993 26.9664C158.266 26.9094 158.55 26.9277 158.847 27.0213C159.146 27.1164 159.43 27.2844 159.701 27.5252C160.082 27.8642 160.307 28.2139 160.375 28.5743C160.445 28.9361 160.404 29.2949 160.252 29.6507Z" fill="#EEEEEE" fill-opacity="0.5"/>
<path d="M165.074 35.4642L164.539 35.9726L162.468 33.7939L163.003 33.2854L165.074 35.4642Z" fill="#EEEEEE" fill-opacity="0.5"/>
<path d="M165.473 40.8767L169.55 37.7252L170.018 38.3303L169.381 38.8228L169.422 38.8758C169.705 38.7925 169.98 38.799 170.247 38.8953C170.515 38.9903 170.752 39.1705 170.957 39.4359C171.165 39.7048 171.277 39.9758 171.293 40.2489C171.312 40.5224 171.252 40.7937 171.112 41.0628L171.145 41.1053C171.436 41.0469 171.725 41.0742 172.01 41.1873C172.297 41.299 172.553 41.5008 172.779 41.7927C173.061 42.1572 173.177 42.5436 173.128 42.9518C173.081 43.3587 172.817 43.7475 172.338 44.1182L169.609 46.2273L169.125 45.601L171.854 43.4918C172.154 43.2593 172.306 43.0108 172.308 42.7464C172.31 42.482 172.224 42.2383 172.052 42.0154C171.831 41.7287 171.572 41.5737 171.277 41.5503C170.984 41.5255 170.705 41.615 170.442 41.8188L167.787 43.8705L167.295 43.2335L170.087 41.0751C170.319 40.8959 170.447 40.6764 170.473 40.4166C170.5 40.1554 170.422 39.9062 170.238 39.6691C170.113 39.5063 169.952 39.3877 169.755 39.3132C169.561 39.2404 169.353 39.2202 169.132 39.2525C168.914 39.2852 168.705 39.3788 168.505 39.5334L165.957 41.503L165.473 40.8767Z" fill="#EEEEEE" fill-opacity="0.5"/>
<path d="M170.256 47.2644L174.51 44.3564L174.957 45.01L170.703 47.9179L170.256 47.2644ZM175.446 44.2041C175.359 44.0767 175.328 43.9372 175.351 43.7855C175.376 43.6357 175.45 43.5192 175.571 43.4359C175.693 43.3526 175.829 43.3265 175.977 43.3577C176.127 43.3907 176.246 43.4708 176.333 43.5982C176.42 43.7256 176.451 43.8642 176.426 44.014C176.402 44.1656 176.329 44.2831 176.208 44.3664C176.086 44.4497 175.95 44.4749 175.8 44.4419C175.651 44.4107 175.534 44.3315 175.446 44.2041Z" fill="#EEEEEE" fill-opacity="0.5"/>
<path d="M172.865 51.468C172.614 51.0557 172.494 50.6413 172.507 50.2246C172.52 49.808 172.648 49.4151 172.892 49.0462C173.136 48.6772 173.477 48.3586 173.916 48.0905C174.362 47.8177 174.807 47.6591 175.249 47.6145C175.694 47.5708 176.103 47.6379 176.476 47.816C176.853 47.9949 177.162 48.2828 177.405 48.6798C177.594 48.989 177.707 49.3026 177.744 49.6207C177.781 49.9387 177.744 50.2399 177.635 50.5242C177.526 50.8085 177.345 51.0537 177.094 51.2598L176.681 50.5841C176.85 50.4102 176.958 50.1872 177.004 49.9153C177.053 49.6441 176.987 49.3597 176.805 49.0619C176.644 48.7985 176.434 48.6096 176.176 48.495C175.92 48.3812 175.634 48.3447 175.319 48.3855C175.006 48.4271 174.684 48.5493 174.351 48.7522C174.012 48.9597 173.748 49.1938 173.562 49.4545C173.376 49.7172 173.274 49.9894 173.255 50.2711C173.237 50.5547 173.309 50.8301 173.472 51.0973C173.58 51.2729 173.707 51.4136 173.856 51.5194C174.004 51.6253 174.166 51.6928 174.341 51.7221C174.517 51.7515 174.697 51.7381 174.883 51.6822L175.296 52.3579C175.013 52.4782 174.721 52.5266 174.421 52.5028C174.124 52.4799 173.839 52.3826 173.567 52.211C173.297 52.0401 173.064 51.7924 172.865 51.468Z" fill="#EEEEEE" fill-opacity="0.5"/>
<path d="M174.825 54.5985L179.355 52.143L179.719 52.8154L179.035 53.1863L179.06 53.2335C179.329 53.1946 179.592 53.2454 179.849 53.386C180.106 53.5266 180.308 53.7326 180.455 54.004C180.483 54.0551 180.516 54.1195 180.556 54.1973C180.595 54.275 180.624 54.3346 180.641 54.3761L179.934 54.7597C179.927 54.7329 179.906 54.6741 179.872 54.5831C179.841 54.4931 179.801 54.4019 179.75 54.3095C179.631 54.0892 179.478 53.9177 179.292 53.7947C179.109 53.6727 178.91 53.6052 178.694 53.5924C178.481 53.5804 178.273 53.6298 178.068 53.7406L175.202 55.2945L174.825 54.5985Z" fill="#EEEEEE" fill-opacity="0.5"/>
<path d="M177.307 59.665C177.107 59.2451 177.031 58.829 177.08 58.4168C177.13 58.0066 177.292 57.627 177.566 57.278C177.842 56.9311 178.22 56.6431 178.701 56.4141C179.185 56.1831 179.65 56.0693 180.095 56.0727C180.541 56.078 180.939 56.1906 181.289 56.4102C181.64 56.6319 181.916 56.9527 182.116 57.3726C182.316 57.7925 182.391 58.2076 182.341 58.6178C182.293 59.03 182.13 59.4101 181.852 59.758C181.575 60.1079 181.195 60.3983 180.71 60.6293C180.23 60.8584 179.767 60.9697 179.323 60.9634C178.88 60.959 178.483 60.846 178.132 60.6243C177.782 60.4047 177.507 60.0849 177.307 59.665ZM177.949 59.359C178.101 59.6779 178.308 59.9014 178.57 60.0294C178.831 60.1573 179.119 60.2073 179.433 60.1791C179.746 60.151 180.059 60.0629 180.369 59.9147C180.68 59.7665 180.946 59.5789 181.168 59.352C181.389 59.1251 181.533 58.8692 181.601 58.5843C181.668 58.2995 181.626 57.9976 181.474 57.6786C181.322 57.3597 181.114 57.1367 180.85 57.0097C180.586 56.8827 180.297 56.8337 179.981 56.8628C179.665 56.8919 179.352 56.9805 179.041 57.1287C178.73 57.2769 178.465 57.464 178.246 57.69C178.027 57.9159 177.884 58.1708 177.819 58.4547C177.754 58.7386 177.797 59.04 177.949 59.359Z" fill="#EEEEEE" fill-opacity="0.5"/>
<path d="M178.2 66.277L184.87 63.8879L185.128 64.608L184.358 64.884L184.389 64.9724C184.493 64.997 184.628 65.0343 184.793 65.0844C184.961 65.1359 185.13 65.2347 185.298 65.3809C185.47 65.5285 185.612 65.7602 185.726 66.076C185.872 66.4845 185.899 66.8811 185.806 67.2659C185.713 67.6506 185.511 67.9975 185.199 68.3065C184.887 68.6155 184.476 68.8612 183.966 69.0437C183.453 69.2277 182.976 69.2999 182.536 69.2601C182.099 69.2196 181.722 69.0815 181.405 68.8459C181.09 68.6096 180.86 68.2893 180.715 67.885C180.603 67.5734 180.565 67.3054 180.601 67.0811C180.64 66.856 180.707 66.6692 180.803 66.5206C180.902 66.3713 180.986 66.2534 181.054 66.167L181.032 66.1038L178.467 67.0223L178.2 66.277ZM182.707 65.4894C182.341 65.6206 182.037 65.79 181.796 65.9977C181.556 66.2046 181.394 66.4396 181.31 66.7025C181.228 66.9646 181.241 67.2452 181.348 67.5441C181.46 67.8557 181.635 68.0864 181.874 68.236C182.116 68.3869 182.395 68.4649 182.713 68.4699C183.034 68.4762 183.367 68.4175 183.712 68.2939C184.053 68.1717 184.342 68.0089 184.578 67.8056C184.816 67.6037 184.978 67.3688 185.063 67.1009C185.15 66.8344 185.137 66.5432 185.024 66.2274C184.916 65.9242 184.748 65.697 184.52 65.5457C184.294 65.3937 184.026 65.314 183.715 65.3068C183.405 65.2988 183.07 65.3597 182.707 65.4894Z" fill="#EEEEEE" fill-opacity="0.5"/>
<path d="M181.91 71.1012L186.846 69.6221L187.066 70.3548L186.32 70.5782L186.335 70.6296C186.607 70.6464 186.854 70.7498 187.076 70.9399C187.299 71.13 187.455 71.3728 187.543 71.6685C187.56 71.7242 187.58 71.7941 187.603 71.8783C187.626 71.9625 187.641 72.0267 187.65 72.0708L186.879 72.3019C186.877 72.2743 186.869 72.2125 186.855 72.1165C186.843 72.022 186.821 71.9244 186.791 71.8238C186.719 71.5838 186.605 71.3847 186.448 71.2263C186.293 71.0695 186.112 70.9627 185.903 70.9061C185.698 70.851 185.484 70.8568 185.261 70.9236L182.137 71.8596L181.91 71.1012Z" fill="#EEEEEE" fill-opacity="0.5"/>
<path d="M183.311 76.5697C183.201 76.1177 183.213 75.6949 183.345 75.3015C183.478 74.9102 183.715 74.572 184.055 74.2869C184.396 74.004 184.825 73.7997 185.342 73.6742C185.864 73.5476 186.342 73.5317 186.777 73.6264C187.213 73.7233 187.579 73.9151 187.877 74.2019C188.175 74.491 188.378 74.8615 188.488 75.3136C188.598 75.7656 188.586 76.1873 188.453 76.5785C188.321 76.972 188.083 77.3104 187.74 77.5939C187.397 77.8796 186.965 78.0857 186.444 78.2122C185.926 78.3378 185.451 78.3518 185.018 78.2544C184.585 78.1592 184.22 77.9671 183.922 77.6781C183.624 77.3913 183.421 77.0218 183.311 76.5697ZM184.002 76.402C184.085 76.7454 184.242 77.0066 184.472 77.1856C184.702 77.3646 184.973 77.4725 185.286 77.5094C185.598 77.5462 185.922 77.5241 186.257 77.4429C186.592 77.3617 186.891 77.2327 187.154 77.0561C187.417 76.8795 187.611 76.6587 187.735 76.3937C187.86 76.1288 187.88 75.8247 187.797 75.4813C187.714 75.1379 187.556 74.8769 187.324 74.6985C187.092 74.5201 186.818 74.4127 186.504 74.3763C186.189 74.34 185.864 74.3624 185.529 74.4436C185.194 74.5248 184.897 74.6535 184.636 74.8296C184.374 75.0057 184.183 75.2259 184.061 75.4903C183.938 75.7547 183.919 76.0586 184.002 76.402Z" fill="#EEEEEE" fill-opacity="0.5"/>
<path d="M189.281 79.2043L189.43 79.982L183.999 81.0178C183.687 81.0773 183.407 81.075 183.158 81.011C182.909 80.9491 182.702 80.8225 182.535 80.6311C182.37 80.4418 182.256 80.1847 182.194 79.8595C182.189 79.8332 182.184 79.8068 182.179 79.7805C182.174 79.7541 182.169 79.7277 182.163 79.7014L182.888 79.5631C182.893 79.5895 182.898 79.6136 182.902 79.6356C182.906 79.6576 182.911 79.6817 182.916 79.7081C182.961 79.9453 183.065 80.1055 183.226 80.1885C183.386 80.272 183.594 80.2892 183.851 80.2401L189.281 79.2043ZM190.198 79.4257C190.169 79.2741 190.196 79.1335 190.278 79.004C190.361 78.8766 190.475 78.7992 190.62 78.7715C190.765 78.7438 190.899 78.774 191.023 78.8619C191.147 78.9521 191.224 79.073 191.252 79.2245C191.281 79.3761 191.254 79.5156 191.172 79.6429C191.089 79.7725 190.976 79.8511 190.831 79.8787C190.686 79.9064 190.551 79.8751 190.427 79.785C190.303 79.697 190.227 79.5772 190.198 79.4257Z" fill="#EEEEEE" fill-opacity="0.5"/>
<path d="M184.947 85.1035C184.876 84.6121 184.924 84.1726 185.089 83.785C185.258 83.3994 185.524 83.0821 185.888 82.8333C186.255 82.5864 186.7 82.4254 187.222 82.3505C187.744 82.2755 188.219 82.3046 188.644 82.4378C189.073 82.5729 189.423 82.796 189.696 83.1071C189.972 83.42 190.142 83.8067 190.208 84.2672C190.246 84.5329 190.24 84.8015 190.188 85.0733C190.137 85.345 190.027 85.6014 189.858 85.8425C189.692 86.0833 189.455 86.2901 189.147 86.463C188.84 86.6359 188.448 86.7565 187.972 86.8248L187.64 86.8724L187.076 82.9408L187.754 82.8436L188.203 85.9783C188.491 85.937 188.74 85.8426 188.949 85.695C189.159 85.5497 189.314 85.3626 189.414 85.1335C189.515 84.9067 189.545 84.6516 189.504 84.3682C189.46 84.0561 189.343 83.7971 189.156 83.5913C188.97 83.3874 188.746 83.2422 188.483 83.1557C188.22 83.0692 187.948 83.0462 187.667 83.0865L187.215 83.1513C186.83 83.2066 186.513 83.3198 186.264 83.4911C186.018 83.6643 185.842 83.8804 185.737 84.1395C185.634 84.3983 185.605 84.686 185.65 85.0025C185.68 85.2084 185.735 85.3902 185.817 85.548C185.901 85.7077 186.01 85.84 186.145 85.9449C186.282 86.0495 186.444 86.1223 186.63 86.1633L186.527 86.9509C186.258 86.9081 186.013 86.8065 185.791 86.6463C185.572 86.4858 185.388 86.2749 185.24 86.0138C185.094 85.7523 184.996 85.4489 184.947 85.1035Z" fill="#EEEEEE" fill-opacity="0.5"/>
<path d="M185.557 90.7506C185.52 90.269 185.601 89.8454 185.802 89.48C186.002 89.1146 186.295 88.8228 186.68 88.6046C187.064 88.3865 187.513 88.2576 188.026 88.2179C188.548 88.1776 189.016 88.2379 189.429 88.3988C189.846 88.5617 190.18 88.8073 190.432 89.1355C190.686 89.4658 190.831 89.8628 190.867 90.3266C190.895 90.6879 190.853 91.0186 190.742 91.3188C190.631 91.619 190.462 91.871 190.235 92.0747C190.009 92.2784 189.737 92.4149 189.419 92.4843L189.358 91.695C189.587 91.6167 189.784 91.4669 189.949 91.2455C190.116 91.0262 190.186 90.7427 190.159 90.3948C190.135 90.0871 190.034 89.8235 189.856 89.604C189.68 89.3866 189.442 89.2244 189.142 89.1175C188.844 89.0126 188.502 88.9752 188.114 89.0052C187.717 89.0359 187.376 89.125 187.091 89.2726C186.807 89.4225 186.592 89.6185 186.447 89.8608C186.302 90.1053 186.242 90.3836 186.266 90.6958C186.282 90.9009 186.332 91.0843 186.416 91.2461C186.5 91.4078 186.614 91.5415 186.757 91.6471C186.899 91.7527 187.066 91.8228 187.257 91.8573L187.318 92.6467C187.012 92.6255 186.73 92.5363 186.473 92.3789C186.219 92.2236 186.01 92.0076 185.845 91.731C185.682 91.4565 185.586 91.1297 185.557 90.7506Z" fill="#EEEEEE" fill-opacity="0.5"/>
<path d="M191.077 96.5553L190.406 96.5708L190.344 93.9012L191.015 93.8857L191.077 96.5553ZM192.267 94.6352L192.286 95.4267L187.376 95.5404C187.152 95.5456 186.985 95.5819 186.875 95.6493C186.767 95.7189 186.695 95.8056 186.66 95.9093C186.626 96.0152 186.611 96.1263 186.614 96.2426C186.616 96.3298 186.622 96.4012 186.632 96.4569C186.644 96.5126 186.654 96.5571 186.662 96.5905L185.955 96.7679C185.933 96.7147 185.911 96.6403 185.889 96.5446C185.864 96.449 185.85 96.3274 185.847 96.1798C185.842 95.9562 185.885 95.736 185.976 95.5191C186.067 95.3045 186.21 95.1245 186.403 94.9791C186.597 94.8359 186.843 94.7608 187.143 94.7539L192.267 94.6352Z" fill="#EEEEEE" fill-opacity="0.5"/>
<path d="M189.831 102.116L189.649 101.4C189.768 101.359 189.885 101.296 189.999 101.212C190.116 101.13 190.213 101.016 190.291 100.87C190.368 100.725 190.41 100.537 190.417 100.307C190.425 99.9915 190.359 99.7268 190.22 99.5127C190.082 99.3009 189.903 99.1921 189.682 99.1861C189.485 99.1808 189.328 99.2481 189.21 99.3881C189.092 99.5281 188.991 99.7491 188.907 100.051L188.698 100.811C188.574 101.268 188.394 101.607 188.157 101.826C187.923 102.046 187.626 102.151 187.266 102.141C186.971 102.133 186.709 102.041 186.482 101.865C186.254 101.691 186.077 101.451 185.951 101.146C185.825 100.84 185.767 100.488 185.778 100.087C185.792 99.562 185.918 99.1302 186.155 98.7921C186.393 98.454 186.732 98.245 187.172 98.1652L187.34 98.9214C187.061 98.9855 186.849 99.1151 186.705 99.3104C186.561 99.5078 186.485 99.7686 186.476 100.093C186.466 100.462 186.536 100.757 186.687 100.978C186.84 101.201 187.027 101.316 187.248 101.322C187.427 101.327 187.578 101.268 187.702 101.146C187.829 101.024 187.926 100.834 187.993 100.577L188.217 99.7237C188.342 99.255 188.525 98.9132 188.765 98.6982C189.008 98.4855 189.307 98.384 189.663 98.3936C189.953 98.4014 190.208 98.49 190.427 98.6592C190.647 98.8307 190.816 99.0601 190.936 99.3475C191.055 99.6371 191.11 99.963 191.101 100.325C191.087 100.835 190.964 101.232 190.733 101.517C190.501 101.803 190.201 102.003 189.831 102.116Z" fill="#EEEEEE" fill-opacity="0.5"/>
<path d="M188.469 109.574L187.736 109.492L188.071 106.505L188.804 106.587L188.469 109.574Z" fill="#EEEEEE" fill-opacity="0.5"/>
<path d="M184.579 113.329L189.613 114.429L189.45 115.176L188.663 115.004L188.649 115.07C188.895 115.233 189.066 115.448 189.164 115.715C189.264 115.981 189.278 116.279 189.206 116.606C189.133 116.938 188.998 117.198 188.799 117.386C188.601 117.576 188.355 117.705 188.059 117.77L188.047 117.823C188.279 118.008 188.443 118.247 188.54 118.538C188.639 118.83 188.649 119.156 188.57 119.517C188.471 119.967 188.25 120.304 187.906 120.529C187.563 120.754 187.096 120.802 186.504 120.672L183.135 119.936L183.304 119.162L186.673 119.899C187.045 119.98 187.332 119.936 187.536 119.768C187.74 119.6 187.872 119.378 187.932 119.103C188.01 118.749 187.963 118.451 187.791 118.21C187.622 117.969 187.374 117.813 187.048 117.742L183.771 117.025L183.943 116.239L187.391 116.992C187.677 117.055 187.928 117.013 188.143 116.865C188.361 116.718 188.502 116.498 188.566 116.205C188.61 116.004 188.597 115.805 188.528 115.607C188.459 115.411 188.341 115.238 188.174 115.09C188.009 114.944 187.803 114.844 187.556 114.79L184.41 114.102L184.579 113.329Z" fill="#EEEEEE" fill-opacity="0.5"/>
<path d="M182.748 121.118L187.705 122.523L187.49 123.284L182.532 121.88L182.748 121.118ZM188.422 123.144C188.464 122.996 188.551 122.882 188.683 122.803C188.814 122.726 188.95 122.708 189.092 122.748C189.234 122.788 189.341 122.875 189.412 123.009C189.483 123.146 189.497 123.288 189.455 123.437C189.413 123.585 189.326 123.698 189.195 123.774C189.064 123.853 188.927 123.873 188.785 123.833C188.643 123.792 188.537 123.704 188.466 123.568C188.395 123.434 188.38 123.292 188.422 123.144Z" fill="#EEEEEE" fill-opacity="0.5"/>
<path d="M181.206 125.779C181.36 125.321 181.601 124.963 181.929 124.706C182.256 124.448 182.64 124.294 183.079 124.244C183.519 124.194 183.982 124.251 184.47 124.415C184.965 124.582 185.372 124.821 185.69 125.131C186.01 125.444 186.221 125.801 186.324 126.202C186.429 126.605 186.407 127.027 186.258 127.468C186.143 127.811 185.975 128.099 185.755 128.332C185.535 128.565 185.281 128.73 184.992 128.829C184.704 128.928 184.4 128.947 184.081 128.886L184.334 128.136C184.576 128.154 184.816 128.093 185.054 127.954C185.293 127.818 185.469 127.584 185.58 127.253C185.679 126.961 185.689 126.679 185.611 126.407C185.534 126.138 185.378 125.896 185.144 125.68C184.912 125.467 184.611 125.298 184.242 125.174C183.865 125.047 183.516 124.995 183.197 125.02C182.876 125.046 182.602 125.143 182.373 125.309C182.144 125.477 181.98 125.709 181.88 126.006C181.814 126.201 181.788 126.39 181.803 126.571C181.817 126.753 181.869 126.921 181.959 127.074C182.049 127.227 182.175 127.357 182.338 127.463L182.085 128.213C181.811 128.074 181.586 127.881 181.412 127.636C181.239 127.394 181.13 127.113 181.087 126.794C181.045 126.478 181.085 126.139 181.206 125.779Z" fill="#EEEEEE" fill-opacity="0.5"/>
<path d="M180.059 129.29L184.848 131.191L184.566 131.902L183.843 131.615L183.823 131.664C184.025 131.846 184.155 132.08 184.212 132.367C184.269 132.655 184.24 132.942 184.126 133.228C184.105 133.283 184.077 133.35 184.043 133.43C184.008 133.51 183.981 133.57 183.96 133.61L183.212 133.313C183.228 133.291 183.26 133.237 183.308 133.153C183.357 133.071 183.401 132.982 183.44 132.884C183.532 132.651 183.566 132.424 183.541 132.202C183.517 131.983 183.441 131.787 183.313 131.614C183.185 131.443 183.014 131.315 182.797 131.229L179.767 130.026L180.059 129.29Z" fill="#EEEEEE" fill-opacity="0.5"/>
<path d="M177.765 134.436C177.959 134.014 178.229 133.689 178.577 133.462C178.924 133.237 179.319 133.118 179.763 133.105C180.206 133.094 180.669 133.2 181.153 133.422C181.641 133.645 182.026 133.929 182.309 134.273C182.591 134.619 182.76 134.996 182.816 135.406C182.871 135.817 182.801 136.234 182.607 136.657C182.413 137.08 182.143 137.404 181.796 137.629C181.449 137.855 181.052 137.974 180.607 137.984C180.161 137.996 179.694 137.89 179.207 137.666C178.723 137.444 178.341 137.161 178.061 136.816C177.78 136.473 177.613 136.096 177.558 135.685C177.502 135.275 177.571 134.859 177.765 134.436ZM178.411 134.733C178.264 135.054 178.225 135.356 178.295 135.639C178.364 135.922 178.51 136.175 178.733 136.397C178.956 136.62 179.224 136.803 179.537 136.947C179.85 137.09 180.164 137.174 180.48 137.198C180.796 137.223 181.085 137.17 181.347 137.039C181.609 136.908 181.813 136.682 181.961 136.361C182.108 136.039 182.146 135.737 182.074 135.453C182.003 135.169 181.854 134.916 181.63 134.692C181.405 134.468 181.136 134.285 180.823 134.141C180.51 133.998 180.196 133.914 179.882 133.891C179.568 133.867 179.282 133.921 179.022 134.053C178.762 134.185 178.559 134.412 178.411 134.733Z" fill="#EEEEEE" fill-opacity="0.5"/>
<path d="M173.266 139.351L179.38 142.932L178.993 143.592L178.287 143.178L178.239 143.259C178.287 143.355 178.345 143.482 178.412 143.641C178.481 143.802 178.513 143.995 178.509 144.218C178.506 144.445 178.42 144.703 178.251 144.992C178.031 145.366 177.744 145.642 177.39 145.818C177.035 145.993 176.639 146.061 176.202 146.02C175.765 145.979 175.313 145.822 174.846 145.548C174.375 145.272 174.014 144.953 173.762 144.59C173.512 144.229 173.376 143.851 173.353 143.457C173.332 143.063 173.43 142.681 173.647 142.311C173.814 142.025 173.996 141.824 174.191 141.708C174.388 141.593 174.574 141.524 174.75 141.503C174.928 141.483 175.072 141.471 175.183 141.469L175.216 141.411L172.866 140.034L173.266 139.351ZM176.763 142.301C176.427 142.105 176.102 141.98 175.788 141.928C175.476 141.877 175.192 141.904 174.936 142.009C174.683 142.114 174.476 142.304 174.315 142.578C174.148 142.863 174.083 143.146 174.122 143.425C174.161 143.707 174.281 143.972 174.481 144.219C174.682 144.469 174.941 144.686 175.257 144.872C175.57 145.055 175.88 145.172 176.187 145.222C176.496 145.276 176.78 145.249 177.039 145.142C177.3 145.038 177.515 144.841 177.684 144.552C177.847 144.274 177.913 143.999 177.883 143.727C177.855 143.457 177.744 143.2 177.55 142.956C177.357 142.714 177.095 142.496 176.763 142.301Z" fill="#EEEEEE" fill-opacity="0.5"/>
<path d="M171.955 145.275L176.261 148.104L175.841 148.744L175.19 148.316L175.161 148.361C175.322 148.58 175.402 148.835 175.4 149.128C175.397 149.421 175.311 149.696 175.142 149.954C175.11 150.003 175.069 150.063 175.019 150.135C174.969 150.206 174.93 150.259 174.902 150.294L174.229 149.852C174.25 149.834 174.292 149.788 174.356 149.715C174.421 149.645 174.482 149.566 174.539 149.478C174.677 149.269 174.756 149.053 174.776 148.831C174.797 148.612 174.762 148.404 174.671 148.208C174.581 148.015 174.439 147.855 174.245 147.727L171.52 145.936L171.955 145.275Z" fill="#EEEEEE" fill-opacity="0.5"/>
<path d="M168.65 149.879C168.926 149.505 169.257 149.243 169.644 149.092C170.03 148.943 170.441 148.907 170.878 148.986C171.314 149.066 171.746 149.264 172.174 149.58C172.606 149.899 172.925 150.255 173.131 150.65C173.336 151.046 173.424 151.45 173.395 151.862C173.364 152.276 173.211 152.67 172.935 153.045C172.658 153.419 172.327 153.68 171.942 153.829C171.555 153.98 171.143 154.015 170.705 153.934C170.267 153.854 169.831 153.655 169.399 153.336C168.971 153.02 168.656 152.664 168.452 152.269C168.248 151.876 168.161 151.473 168.191 151.059C168.22 150.647 168.373 150.254 168.65 149.879ZM169.222 150.302C169.012 150.586 168.912 150.874 168.922 151.165C168.932 151.456 169.023 151.733 169.196 151.997C169.368 152.261 169.593 152.495 169.87 152.699C170.147 152.904 170.438 153.05 170.742 153.139C171.046 153.228 171.34 153.235 171.623 153.16C171.906 153.086 172.153 152.906 172.363 152.622C172.572 152.338 172.671 152.049 172.659 151.757C172.648 151.465 172.554 151.186 172.38 150.921C172.206 150.656 171.981 150.421 171.704 150.217C171.426 150.012 171.137 149.866 170.834 149.779C170.532 149.692 170.24 149.686 169.958 149.762C169.677 149.838 169.432 150.018 169.222 150.302Z" fill="#EEEEEE" fill-opacity="0.5"/>
<path d="M170.48 156.126L169.98 156.74L165.694 153.249C165.448 153.048 165.269 152.832 165.158 152.6C165.046 152.37 165.009 152.13 165.049 151.879C165.087 151.63 165.211 151.378 165.42 151.121C165.437 151.1 165.453 151.079 165.47 151.059C165.487 151.038 165.504 151.017 165.521 150.996L166.093 151.462C166.077 151.483 166.061 151.502 166.047 151.52C166.033 151.537 166.017 151.556 166 151.577C165.848 151.764 165.792 151.946 165.832 152.123C165.871 152.299 165.991 152.47 166.194 152.635L170.48 156.126ZM170.901 156.971C170.998 156.851 171.123 156.781 171.275 156.761C171.426 156.742 171.558 156.779 171.673 156.873C171.787 156.966 171.85 157.088 171.863 157.239C171.874 157.393 171.83 157.529 171.733 157.649C171.635 157.768 171.511 157.837 171.361 157.856C171.208 157.876 171.075 157.84 170.961 157.747C170.846 157.653 170.784 157.53 170.773 157.377C170.76 157.226 170.803 157.09 170.901 156.971Z" fill="#EEEEEE" fill-opacity="0.5"/>
<path d="M163.197 156.573C163.529 156.203 163.896 155.957 164.3 155.835C164.703 155.717 165.118 155.717 165.542 155.836C165.967 155.959 166.376 156.196 166.769 156.549C167.162 156.901 167.444 157.283 167.615 157.695C167.787 158.11 167.841 158.522 167.778 158.931C167.715 159.343 167.528 159.722 167.218 160.069C167.038 160.269 166.828 160.436 166.587 160.571C166.346 160.706 166.078 160.787 165.785 160.812C165.494 160.839 165.183 160.79 164.853 160.666C164.523 160.541 164.179 160.318 163.821 159.997L163.571 159.774L166.223 156.816L166.732 157.273L164.618 159.631C164.835 159.825 165.067 159.955 165.314 160.021C165.56 160.088 165.803 160.087 166.044 160.016C166.282 159.948 166.497 159.807 166.688 159.594C166.899 159.359 167.022 159.104 167.06 158.828C167.097 158.555 167.064 158.29 166.962 158.033C166.859 157.775 166.702 157.552 166.49 157.362L166.151 157.058C165.861 156.798 165.57 156.628 165.279 156.547C164.988 156.469 164.71 156.473 164.444 156.559C164.179 156.647 163.94 156.809 163.727 157.047C163.588 157.202 163.484 157.362 163.416 157.525C163.347 157.692 163.316 157.861 163.322 158.032C163.33 158.204 163.378 158.375 163.466 158.544L162.796 158.97C162.657 158.737 162.577 158.484 162.557 158.211C162.539 157.94 162.583 157.663 162.688 157.382C162.795 157.102 162.964 156.832 163.197 156.573Z" fill="#EEEEEE" fill-opacity="0.5"/>
<path d="M159.264 160.678C159.609 160.34 159.986 160.13 160.395 160.049C160.804 159.968 161.216 160.005 161.63 160.16C162.044 160.315 162.431 160.576 162.791 160.944C163.157 161.318 163.411 161.715 163.554 162.136C163.696 162.56 163.723 162.974 163.633 163.377C163.543 163.784 163.332 164.151 162.999 164.476C162.74 164.729 162.46 164.91 162.158 165.017C161.857 165.125 161.555 165.157 161.253 165.114C160.952 165.071 160.672 164.95 160.415 164.751L160.981 164.198C161.188 164.323 161.43 164.378 161.705 164.362C161.981 164.349 162.243 164.221 162.492 163.977C162.713 163.761 162.85 163.514 162.904 163.237C162.957 162.962 162.929 162.675 162.818 162.377C162.707 162.082 162.516 161.795 162.244 161.517C161.965 161.232 161.678 161.028 161.382 160.905C161.085 160.783 160.797 160.744 160.518 160.789C160.237 160.835 159.985 160.967 159.761 161.186C159.614 161.33 159.506 161.486 159.436 161.654C159.366 161.823 159.337 161.996 159.347 162.173C159.358 162.35 159.412 162.523 159.508 162.692L158.942 163.246C158.761 162.997 158.649 162.724 158.604 162.426C158.56 162.131 158.591 161.832 158.697 161.528C158.803 161.227 158.992 160.944 159.264 160.678Z" fill="#EEEEEE" fill-opacity="0.5"/>
<path d="M158.323 168.677L157.88 168.173L159.888 166.412L160.33 166.916L158.323 168.677ZM160.559 168.358L159.964 168.88L156.726 165.187C156.578 165.019 156.443 164.914 156.321 164.873C156.198 164.835 156.085 164.836 155.983 164.875C155.88 164.917 155.785 164.977 155.698 165.053C155.632 165.111 155.581 165.162 155.545 165.205C155.511 165.25 155.483 165.287 155.462 165.314L154.872 164.885C154.899 164.835 154.942 164.77 155.001 164.692C155.059 164.611 155.143 164.523 155.254 164.425C155.422 164.278 155.619 164.17 155.843 164.1C156.067 164.032 156.296 164.026 156.532 164.081C156.766 164.138 156.982 164.279 157.179 164.504L160.559 168.358Z" fill="#EEEEEE" fill-opacity="0.5"/>
<path d="M153.582 171.045L154.013 170.444C154.122 170.509 154.245 170.558 154.383 170.591C154.521 170.627 154.67 170.628 154.832 170.594C154.993 170.56 155.164 170.471 155.344 170.327C155.591 170.131 155.751 169.91 155.825 169.666C155.899 169.424 155.866 169.217 155.728 169.043C155.606 168.89 155.453 168.813 155.27 168.813C155.087 168.812 154.853 168.878 154.567 169.008L153.852 169.337C153.422 169.537 153.047 169.617 152.727 169.577C152.408 169.54 152.136 169.38 151.912 169.098C151.728 168.868 151.63 168.608 151.618 168.32C151.604 168.034 151.674 167.744 151.826 167.451C151.979 167.158 152.212 166.887 152.525 166.637C152.936 166.31 153.347 166.128 153.759 166.092C154.17 166.056 154.548 166.18 154.893 166.466L154.423 167.081C154.194 166.909 153.958 166.831 153.716 166.846C153.473 166.863 153.224 166.973 152.97 167.175C152.682 167.405 152.501 167.648 152.429 167.906C152.356 168.167 152.389 168.384 152.527 168.557C152.639 168.697 152.781 168.775 152.954 168.791C153.129 168.81 153.336 168.762 153.577 168.647L154.374 168.269C154.813 168.063 155.192 167.982 155.511 168.028C155.831 168.077 156.101 168.241 156.322 168.519C156.504 168.746 156.6 168.998 156.612 169.275C156.622 169.553 156.555 169.83 156.412 170.107C156.268 170.385 156.054 170.637 155.771 170.863C155.372 171.18 154.989 171.342 154.622 171.349C154.254 171.356 153.907 171.255 153.582 171.045Z" fill="#EEEEEE" fill-opacity="0.5"/>
<path d="M147.052 174.789L146.642 174.176L149.142 172.507L149.552 173.12L147.052 174.789Z" fill="#EEEEEE" fill-opacity="0.5"/>
<path d="M141.638 174.267L144.043 178.824L143.367 179.181L142.991 178.469L142.931 178.5C142.965 178.793 142.911 179.063 142.771 179.309C142.631 179.557 142.413 179.76 142.116 179.916C141.816 180.075 141.529 180.139 141.258 180.108C140.985 180.08 140.728 179.974 140.487 179.79L140.439 179.815C140.447 180.112 140.37 180.391 140.21 180.653C140.051 180.917 139.808 181.135 139.482 181.307C139.074 181.522 138.674 181.57 138.28 181.452C137.887 181.335 137.549 181.009 137.266 180.473L135.657 177.423L136.357 177.054L137.967 180.104C138.144 180.44 138.363 180.632 138.623 180.679C138.883 180.726 139.138 180.684 139.387 180.553C139.707 180.383 139.904 180.156 139.978 179.869C140.053 179.584 140.013 179.294 139.857 179L138.291 176.033L139.003 175.657L140.651 178.778C140.787 179.037 140.981 179.202 141.233 179.271C141.486 179.343 141.745 179.308 142.01 179.168C142.192 179.072 142.336 178.934 142.443 178.754C142.548 178.574 142.604 178.373 142.61 178.15C142.615 177.93 142.559 177.708 142.441 177.484L140.938 174.636L141.638 174.267Z" fill="#EEEEEE" fill-opacity="0.5"/>
<path d="M134.592 177.854L136.722 182.545L136.001 182.873L133.871 178.181L134.592 177.854ZM136.711 183.494C136.851 183.43 136.994 183.423 137.139 183.472C137.283 183.523 137.385 183.615 137.446 183.749C137.507 183.884 137.509 184.021 137.453 184.163C137.395 184.304 137.295 184.407 137.155 184.471C137.014 184.535 136.872 184.542 136.729 184.491C136.584 184.442 136.481 184.35 136.42 184.215C136.358 184.081 136.357 183.943 136.416 183.801C136.472 183.66 136.57 183.557 136.711 183.494Z" fill="#EEEEEE" fill-opacity="0.5"/>
<path d="M130.077 179.675C130.526 179.497 130.954 179.45 131.363 179.533C131.771 179.616 132.137 179.81 132.459 180.112C132.781 180.415 133.037 180.806 133.227 181.284C133.42 181.77 133.501 182.235 133.47 182.678C133.437 183.124 133.302 183.516 133.063 183.854C132.822 184.194 132.486 184.451 132.054 184.622C131.717 184.756 131.389 184.814 131.069 184.796C130.749 184.779 130.459 184.692 130.197 184.536C129.935 184.38 129.724 184.16 129.564 183.878L130.3 183.586C130.443 183.782 130.644 183.925 130.904 184.017C131.163 184.112 131.455 184.095 131.779 183.966C132.066 183.852 132.288 183.677 132.445 183.442C132.6 183.209 132.685 182.934 132.698 182.616C132.71 182.301 132.644 181.962 132.501 181.601C132.354 181.231 132.168 180.932 131.943 180.703C131.715 180.476 131.464 180.329 131.19 180.262C130.914 180.196 130.63 180.221 130.339 180.336C130.148 180.412 129.987 180.514 129.858 180.643C129.728 180.771 129.634 180.919 129.576 181.087C129.517 181.254 129.499 181.435 129.523 181.627L128.787 181.919C128.717 181.62 128.718 181.325 128.793 181.033C128.866 180.744 129.01 180.48 129.225 180.24C129.44 180.004 129.723 179.815 130.077 179.675Z" fill="#EEEEEE" fill-opacity="0.5"/>
<path d="M126.495 181.13L128.123 186.019L127.397 186.261L127.151 185.522L127.1 185.539C127.092 185.811 126.996 186.061 126.812 186.289C126.629 186.517 126.391 186.68 126.098 186.778C126.043 186.796 125.974 186.818 125.89 186.843C125.807 186.869 125.743 186.886 125.699 186.896L125.445 186.132C125.473 186.13 125.534 186.12 125.63 186.103C125.724 186.088 125.821 186.064 125.92 186.031C126.158 185.952 126.354 185.831 126.507 185.669C126.659 185.51 126.761 185.326 126.811 185.116C126.86 184.908 126.847 184.694 126.774 184.474L125.744 181.38L126.495 181.13Z" fill="#EEEEEE" fill-opacity="0.5"/>
<path d="M121.098 182.693C121.547 182.569 121.969 182.568 122.367 182.688C122.762 182.809 123.107 183.036 123.402 183.367C123.696 183.699 123.913 184.122 124.054 184.635C124.196 185.153 124.227 185.63 124.145 186.068C124.062 186.506 123.881 186.878 123.603 187.184C123.324 187.491 122.959 187.706 122.511 187.829C122.062 187.953 121.641 187.954 121.245 187.833C120.848 187.713 120.503 187.485 120.209 187.151C119.913 186.817 119.694 186.391 119.551 185.874C119.41 185.361 119.382 184.886 119.466 184.45C119.548 184.015 119.729 183.644 120.009 183.337C120.286 183.031 120.649 182.816 121.098 182.693ZM121.287 183.379C120.946 183.472 120.69 183.637 120.518 183.872C120.346 184.107 120.246 184.382 120.219 184.695C120.191 185.009 120.223 185.332 120.315 185.664C120.406 185.996 120.544 186.291 120.729 186.549C120.913 186.806 121.14 186.993 121.408 187.11C121.677 187.226 121.982 187.237 122.322 187.144C122.663 187.05 122.919 186.884 123.09 186.647C123.262 186.41 123.361 186.133 123.387 185.817C123.414 185.501 123.382 185.177 123.291 184.845C123.199 184.513 123.062 184.219 122.878 183.964C122.694 183.708 122.468 183.523 122.2 183.409C121.932 183.295 121.627 183.285 121.287 183.379Z" fill="#EEEEEE" fill-opacity="0.5"/>
<path d="M114.654 182.385L115.875 189.364L115.122 189.496L114.981 188.69L114.888 188.706C114.846 188.804 114.787 188.93 114.709 189.085C114.63 189.242 114.504 189.391 114.331 189.532C114.157 189.676 113.904 189.777 113.574 189.835C113.146 189.91 112.751 189.869 112.387 189.712C112.024 189.555 111.717 189.297 111.465 188.937C111.214 188.577 111.041 188.13 110.948 187.597C110.854 187.059 110.864 186.578 110.978 186.151C111.092 185.727 111.292 185.379 111.578 185.106C111.865 184.836 112.22 184.664 112.643 184.59C112.969 184.533 113.239 184.541 113.454 184.615C113.669 184.69 113.842 184.789 113.972 184.909C114.102 185.031 114.204 185.134 114.278 185.216L114.344 185.205L113.875 182.522L114.654 182.385ZM114.665 186.96C114.598 186.577 114.482 186.249 114.319 185.975C114.155 185.704 113.951 185.505 113.707 185.378C113.462 185.252 113.184 185.217 112.871 185.272C112.545 185.329 112.288 185.462 112.1 185.672C111.91 185.885 111.785 186.147 111.727 186.46C111.666 186.774 111.667 187.112 111.73 187.474C111.793 187.831 111.904 188.143 112.064 188.41C112.223 188.68 112.427 188.879 112.676 189.008C112.924 189.139 113.213 189.176 113.544 189.118C113.861 189.063 114.113 188.936 114.301 188.737C114.489 188.541 114.613 188.29 114.673 187.984C114.734 187.681 114.731 187.339 114.665 186.96Z" fill="#EEEEEE" fill-opacity="0.5"/>
<path d="M109.227 185.228L109.842 190.344L109.082 190.435L108.989 189.662L108.936 189.668C108.873 189.933 108.729 190.158 108.504 190.345C108.278 190.532 108.013 190.644 107.706 190.681C107.648 190.688 107.576 190.696 107.489 190.704C107.402 190.712 107.336 190.716 107.292 190.717L107.196 189.918C107.223 189.921 107.285 189.924 107.382 189.926C107.477 189.93 107.577 189.926 107.682 189.914C107.93 189.884 108.146 189.805 108.329 189.677C108.51 189.552 108.646 189.391 108.737 189.196C108.827 189.002 108.858 188.79 108.83 188.559L108.441 185.322L109.227 185.228Z" fill="#EEEEEE" fill-opacity="0.5"/>
<path d="M103.506 185.684C103.97 185.654 104.385 185.738 104.75 185.936C105.113 186.134 105.405 186.425 105.628 186.809C105.848 187.194 105.975 187.651 106.01 188.183C106.045 188.718 105.979 189.192 105.811 189.604C105.641 190.017 105.389 190.345 105.055 190.589C104.72 190.833 104.32 190.97 103.855 191C103.391 191.031 102.978 190.947 102.615 190.749C102.25 190.551 101.958 190.259 101.737 189.872C101.515 189.485 101.386 189.024 101.351 188.489C101.316 187.958 101.383 187.487 101.554 187.077C101.722 186.667 101.974 186.34 102.31 186.096C102.643 185.852 103.042 185.715 103.506 185.684ZM103.553 186.394C103.2 186.417 102.916 186.527 102.7 186.722C102.485 186.918 102.332 187.167 102.242 187.469C102.152 187.77 102.118 188.093 102.141 188.437C102.163 188.78 102.239 189.097 102.368 189.387C102.497 189.676 102.681 189.905 102.92 190.073C103.16 190.241 103.456 190.314 103.809 190.291C104.161 190.267 104.446 190.157 104.661 189.959C104.877 189.761 105.029 189.51 105.119 189.206C105.209 188.902 105.243 188.578 105.22 188.234C105.198 187.891 105.122 187.575 104.993 187.288C104.865 187.001 104.681 186.774 104.441 186.608C104.202 186.442 103.905 186.371 103.553 186.394Z" fill="#EEEEEE" fill-opacity="0.5"/>
<path d="M100.07 191.115L99.2789 191.131L99.1722 185.603C99.166 185.286 99.2155 185.009 99.3206 184.775C99.4234 184.54 99.5832 184.357 99.7999 184.225C100.014 184.094 100.287 184.025 100.618 184.018C100.645 184.018 100.672 184.017 100.698 184.017C100.725 184.016 100.752 184.016 100.779 184.015L100.793 184.753C100.766 184.754 100.742 184.754 100.719 184.754C100.697 184.755 100.672 184.755 100.646 184.756C100.404 184.761 100.229 184.836 100.12 184.981C100.011 185.124 99.9587 185.326 99.9637 185.588L100.07 191.115ZM99.6979 191.981C99.8522 191.978 99.9863 192.028 100.1 192.131C100.212 192.234 100.269 192.36 100.272 192.507C100.275 192.655 100.222 192.782 100.115 192.889C100.005 192.997 99.8729 193.052 99.7186 193.055C99.5644 193.058 99.4314 193.008 99.3198 192.905C99.206 192.802 99.1476 192.676 99.1448 192.529C99.142 192.381 99.1954 192.254 99.3052 192.147C99.4127 192.039 99.5436 191.984 99.6979 191.981Z" fill="#EEEEEE" fill-opacity="0.5"/>
<path d="M94.4467 185.837C94.9429 185.854 95.3671 185.979 95.7193 186.21C96.0692 186.444 96.3346 186.762 96.5153 187.164C96.6937 187.569 96.7737 188.035 96.7554 188.562C96.737 189.09 96.6248 189.551 96.4186 189.947C96.2101 190.345 95.9287 190.65 95.5744 190.864C95.2178 191.08 94.807 191.18 94.3421 191.164C94.0739 191.154 93.8106 191.1 93.5522 191.002C93.2938 190.904 93.0608 190.75 92.8532 190.541C92.6456 190.335 92.4838 190.065 92.3678 189.732C92.2518 189.399 92.2021 188.993 92.2188 188.512L92.2305 188.177L96.2 188.315L96.1763 188.999L93.0114 188.889C93.0013 189.179 93.0504 189.44 93.1587 189.672C93.2647 189.904 93.4217 190.09 93.6294 190.229C93.8349 190.368 94.0807 190.443 94.3668 190.453C94.682 190.464 94.9574 190.395 95.193 190.247C95.4264 190.1 95.6088 189.905 95.7404 189.661C95.8719 189.418 95.9426 189.154 95.9525 188.87L95.9683 188.414C95.9818 188.025 95.9263 187.693 95.8015 187.418C95.6745 187.145 95.4928 186.934 95.2563 186.785C95.0197 186.638 94.7416 186.559 94.422 186.548C94.2141 186.54 94.0253 186.563 93.8557 186.615C93.6837 186.67 93.5342 186.754 93.4072 186.868C93.2801 186.985 93.1799 187.131 93.1066 187.308L92.3496 187.066C92.4391 186.81 92.5823 186.587 92.7791 186.397C92.9758 186.209 93.2158 186.065 93.499 185.965C93.7821 185.868 94.098 185.825 94.4467 185.837Z" fill="#EEEEEE" fill-opacity="0.5"/>
<path d="M88.6848 185.457C89.1655 185.505 89.5679 185.66 89.8922 185.922C90.2166 186.184 90.4521 186.524 90.599 186.941C90.7458 187.358 90.7935 187.822 90.7421 188.334C90.6897 188.855 90.5478 189.305 90.3163 189.684C90.0825 190.065 89.7818 190.35 89.4142 190.54C89.0443 190.732 88.6279 190.805 88.165 190.759C87.8045 190.722 87.4864 190.623 87.2105 190.46C86.9347 190.298 86.7165 190.087 86.556 189.828C86.3954 189.569 86.309 189.277 86.2968 188.952L87.0845 189.032C87.1211 189.271 87.2338 189.492 87.4226 189.693C87.609 189.896 87.8757 190.015 88.2228 190.05C88.5299 190.081 88.8072 190.028 89.0548 189.891C89.2999 189.756 89.5015 189.55 89.6597 189.274C89.8154 188.999 89.9127 188.669 89.9516 188.281C89.9915 187.885 89.9639 187.534 89.8688 187.228C89.7715 186.921 89.6164 186.675 89.4036 186.49C89.1885 186.304 88.9252 186.196 88.6136 186.164C88.4089 186.144 88.2195 186.161 88.0455 186.215C87.8714 186.27 87.7198 186.358 87.5907 186.48C87.4615 186.601 87.3631 186.753 87.2953 186.935L86.5076 186.856C86.5826 186.558 86.7201 186.296 86.9203 186.072C87.1181 185.849 87.3676 185.681 87.669 185.567C87.9679 185.455 88.3065 185.419 88.6848 185.457Z" fill="#EEEEEE" fill-opacity="0.5"/>
<path d="M82.3017 189.931L82.4021 189.268L85.0423 189.668L84.9419 190.331L82.3017 189.931ZM83.9877 191.435L83.2049 191.317L83.9397 186.461C83.9732 186.24 83.9662 186.069 83.9188 185.949C83.8689 185.83 83.7959 185.745 83.6999 185.692C83.6013 185.64 83.4945 185.606 83.3795 185.589C83.2933 185.576 83.2219 185.57 83.1653 185.57C83.1083 185.573 83.0627 185.575 83.0286 185.576L82.9758 184.849C83.0318 184.837 83.1089 184.829 83.207 184.823C83.3055 184.815 83.4276 184.823 83.5736 184.845C83.7947 184.878 84.0042 184.958 84.2021 185.086C84.3978 185.213 84.5506 185.384 84.6604 185.599C84.7681 185.815 84.7995 186.071 84.7547 186.367L83.9877 191.435Z" fill="#EEEEEE" fill-opacity="0.5"/>
<path d="M77.3211 187.809L78.0581 187.753C78.0784 187.878 78.1202 188.004 78.1835 188.131C78.2441 188.259 78.3395 188.374 78.4695 188.476C78.5995 188.578 78.7774 188.651 79.0031 188.697C79.3122 188.76 79.5842 188.741 79.8191 188.64C80.0514 188.541 80.1895 188.383 80.2335 188.166C80.2725 187.973 80.2333 187.807 80.1156 187.666C79.998 187.526 79.7977 187.389 79.5147 187.254L78.8024 186.918C78.3731 186.716 78.0706 186.481 77.8949 186.21C77.7189 185.942 77.6666 185.631 77.7381 185.278C77.7967 184.989 77.9324 184.747 78.1452 184.553C78.3558 184.358 78.6224 184.225 78.9449 184.153C79.2675 184.082 79.6249 184.086 80.0173 184.165C80.5324 184.27 80.9361 184.468 81.2283 184.76C81.5206 185.052 81.6681 185.422 81.6709 185.87L80.8971 185.904C80.882 185.618 80.7907 185.388 80.6232 185.212C80.4535 185.036 80.2097 184.916 79.8919 184.852C79.5302 184.779 79.2275 184.797 78.9838 184.907C78.7375 185.02 78.5923 185.184 78.5483 185.401C78.5128 185.576 78.5444 185.736 78.6432 185.879C78.7415 186.024 78.9118 186.153 79.154 186.263L79.9558 186.631C80.396 186.834 80.7014 187.073 80.8717 187.347C81.0395 187.623 81.088 187.935 81.0174 188.284C80.9596 188.569 80.8286 188.805 80.6241 188.991C80.4175 189.178 80.1624 189.305 79.8587 189.374C79.5528 189.442 79.2223 189.44 78.8672 189.368C78.3675 189.267 77.9973 189.077 77.7568 188.801C77.5141 188.523 77.3688 188.192 77.3211 187.809Z" fill="#EEEEEE" fill-opacity="0.5"/>
<path d="M67.5131 184.32L67.7435 183.619L70.599 184.558L70.3686 185.259L67.5131 184.32Z" fill="#EEEEEE" fill-opacity="0.5"/>
<path d="M64.3451 179.657L62.2321 184.357L61.5345 184.043L61.8647 183.309L61.8035 183.281C61.5928 183.488 61.3471 183.612 61.0665 183.652C60.785 183.695 60.4912 183.647 60.1853 183.51C59.8752 183.37 59.6488 183.184 59.5061 182.951C59.3604 182.718 59.2858 182.451 59.2823 182.148L59.2334 182.126C59.0039 182.314 58.7367 182.426 58.4318 182.46C58.126 182.497 57.8048 182.44 57.4683 182.288C57.0481 182.099 56.7635 181.813 56.6146 181.43C56.4648 181.049 56.5142 180.582 56.7627 180.029L58.1768 176.884L58.8989 177.208L57.4848 180.354C57.3289 180.7 57.3123 180.991 57.435 181.225C57.5578 181.459 57.7477 181.634 58.0047 181.75C58.3351 181.898 58.636 181.913 58.9075 181.795C59.178 181.679 59.3815 181.469 59.5182 181.165L60.8938 178.105L61.6281 178.435L60.181 181.654C60.0608 181.921 60.0508 182.176 60.1508 182.417C60.2499 182.66 60.4361 182.843 60.7094 182.966C60.8971 183.05 61.095 183.079 61.3031 183.052C61.5092 183.025 61.7021 182.945 61.8818 182.812C62.0586 182.681 62.1988 182.5 62.3024 182.27L63.623 179.332L64.3451 179.657Z" fill="#EEEEEE" fill-opacity="0.5"/>
<path d="M57.3076 176.38L54.9193 180.946L54.2178 180.579L56.606 176.013L57.3076 176.38ZM54.1646 181.521C54.3013 181.592 54.3949 181.7 54.4453 181.845C54.4936 181.989 54.4836 182.127 54.4152 182.258C54.3468 182.388 54.2397 182.475 54.0939 182.517C53.9461 182.559 53.8038 182.543 53.6671 182.472C53.5303 182.4 53.4377 182.293 53.3894 182.149C53.339 182.004 53.348 181.866 53.4164 181.735C53.4848 181.604 53.5929 181.518 53.7408 181.477C53.8866 181.435 54.0279 181.449 54.1646 181.521Z" fill="#EEEEEE" fill-opacity="0.5"/>
<path d="M53.163 173.994C53.5799 174.239 53.8811 174.547 54.0669 174.92C54.2526 175.294 54.3254 175.7 54.2851 176.141C54.2449 176.581 54.0948 177.023 53.8348 177.467C53.5702 177.919 53.2538 178.269 52.8855 178.517C52.5142 178.766 52.1218 178.9 51.7086 178.92C51.2922 178.94 50.8834 178.833 50.482 178.598C50.1694 178.415 49.9215 178.192 49.7385 177.929C49.5554 177.666 49.4449 177.384 49.4068 177.082C49.3687 176.779 49.4118 176.478 49.536 176.178L50.2191 176.578C50.1525 176.811 50.1631 177.058 50.251 177.32C50.3359 177.582 50.5288 177.801 50.8299 177.977C51.0962 178.133 51.3704 178.201 51.6524 178.179C51.9315 178.159 52.2004 178.056 52.4593 177.871C52.7151 177.686 52.9414 177.426 53.1381 177.09C53.3393 176.747 53.4605 176.416 53.5016 176.098C53.5408 175.779 53.5023 175.49 53.3861 175.233C53.2679 174.975 53.0737 174.766 52.8036 174.608C52.626 174.504 52.4468 174.441 52.2659 174.418C52.085 174.395 51.9105 174.412 51.7423 174.469C51.5741 174.526 51.4213 174.623 51.2839 174.76L50.6008 174.36C50.7931 174.12 51.0271 173.939 51.3028 173.818C51.5754 173.698 51.8723 173.649 52.1936 173.672C52.5119 173.695 52.835 173.802 53.163 173.994Z" fill="#EEEEEE" fill-opacity="0.5"/>
<path d="M49.6908 172.006L46.8455 176.302L46.2078 175.879L46.6376 175.23L46.5928 175.201C46.3737 175.362 46.1178 175.44 45.825 175.437C45.5322 175.433 45.2572 175.346 44.9999 175.176C44.9514 175.144 44.8914 175.103 44.8199 175.053C44.7484 175.003 44.6953 174.963 44.6605 174.935L45.105 174.264C45.1237 174.284 45.1694 174.326 45.2422 174.391C45.3119 174.456 45.3905 174.517 45.4782 174.575C45.687 174.714 45.9025 174.793 46.1246 174.814C46.3436 174.836 46.5513 174.802 46.7477 174.712C46.9409 174.623 47.1018 174.481 47.2302 174.287L49.0308 171.569L49.6908 172.006Z" fill="#EEEEEE" fill-opacity="0.5"/>
<path d="M45.286 168.84C45.6602 169.116 45.9227 169.448 46.0736 169.834C46.2227 170.22 46.2581 170.631 46.1799 171.068C46.0999 171.504 45.9017 171.936 45.5855 172.364C45.2666 172.796 44.91 173.115 44.5156 173.321C44.1195 173.526 43.7153 173.614 43.3031 173.585C42.8891 173.555 42.4951 173.401 42.1209 173.125C41.7467 172.848 41.4851 172.518 41.336 172.132C41.1851 171.745 41.1503 171.333 41.2317 170.896C41.3112 170.457 41.5105 170.021 41.8294 169.59C42.1456 169.161 42.5011 168.846 42.896 168.643C43.289 168.438 43.6925 168.351 44.1065 168.381C44.5186 168.411 44.9118 168.563 45.286 168.84ZM44.8635 169.412C44.5792 169.202 44.2915 169.102 44.0004 169.112C43.7093 169.122 43.432 169.214 43.1684 169.386C42.9049 169.558 42.6708 169.783 42.4662 170.06C42.2615 170.337 42.1149 170.628 42.0264 170.932C41.9378 171.236 41.9308 171.53 42.0053 171.813C42.0798 172.096 42.2592 172.343 42.5434 172.553C42.8277 172.763 43.116 172.862 43.4084 172.85C43.7009 172.838 43.9796 172.745 44.2444 172.57C44.5093 172.396 44.7441 172.171 44.9487 171.894C45.1533 171.617 45.2993 171.327 45.3865 171.024C45.4738 170.722 45.4794 170.43 45.4036 170.149C45.3277 169.867 45.1477 169.622 44.8635 169.412Z" fill="#EEEEEE" fill-opacity="0.5"/>
<path d="M41.2425 163.349L36.4939 168.607L35.9262 168.094L36.4749 167.487L36.4051 167.424C36.302 167.451 36.1658 167.482 35.9965 167.516C35.8241 167.55 35.629 167.543 35.4111 167.493C35.1901 167.445 34.9551 167.308 34.7061 167.083C34.3841 166.792 34.173 166.455 34.0728 166.072C33.9725 165.689 33.9869 165.288 34.116 164.868C34.245 164.448 34.4909 164.038 34.8537 163.636C35.2194 163.231 35.6053 162.942 36.0114 162.769C36.416 162.598 36.8137 162.542 37.2046 162.599C37.594 162.659 37.948 162.832 38.2667 163.12C38.5123 163.342 38.6723 163.56 38.7466 163.775C38.8193 163.991 38.8483 164.188 38.8336 164.364C38.8173 164.543 38.7993 164.686 38.7795 164.795L38.8293 164.84L40.655 162.818L41.2425 163.349ZM37.6431 166.173C37.9039 165.884 38.0916 165.591 38.2064 165.294C38.3196 164.999 38.3511 164.715 38.3008 164.444C38.2491 164.174 38.1054 163.933 37.8697 163.72C37.624 163.498 37.3606 163.378 37.0794 163.359C36.795 163.34 36.5116 163.404 36.2292 163.549C35.9437 163.695 35.6781 163.904 35.4322 164.177C35.1894 164.445 35.0121 164.725 34.9002 165.016C34.7851 165.307 34.7537 165.59 34.8057 165.866C34.8546 166.143 35.0035 166.393 35.2525 166.618C35.4915 166.834 35.7471 166.955 36.0192 166.98C36.2897 167.008 36.564 166.951 36.8418 166.81C37.1182 166.671 37.3852 166.459 37.6431 166.173Z" fill="#EEEEEE" fill-opacity="0.5"/>
<path d="M35.8701 161.038L32.2266 164.681L31.6857 164.141L32.2361 163.59L32.1981 163.552C31.9514 163.666 31.6849 163.692 31.3987 163.631C31.1125 163.569 30.8602 163.429 30.642 163.211C30.6009 163.17 30.5503 163.117 30.4902 163.054C30.4301 162.991 30.3858 162.942 30.3573 162.907L30.9266 162.338C30.9409 162.361 30.9772 162.412 31.0358 162.49C31.0911 162.567 31.1559 162.643 31.2303 162.717C31.4074 162.894 31.6027 163.015 31.8162 163.08C32.0265 163.145 32.2368 163.153 32.4472 163.104C32.6543 163.055 32.8402 162.948 33.0046 162.784L35.3103 160.478L35.8701 161.038Z" fill="#EEEEEE" fill-opacity="0.5"/>
<path d="M31.8269 156.675C32.1374 157.021 32.3274 157.399 32.3969 157.808C32.465 158.216 32.4165 158.626 32.2514 159.038C32.0849 159.449 31.8035 159.832 31.4072 160.187C31.0075 160.545 30.5937 160.786 30.1658 160.908C29.7363 161.029 29.3227 161.033 28.925 160.921C28.5257 160.808 28.1708 160.578 27.8603 160.231C27.5498 159.885 27.3605 159.508 27.2925 159.1C27.2229 158.691 27.2723 158.28 27.4405 157.868C27.6072 157.454 27.8903 157.068 28.29 156.71C28.6863 156.355 29.0984 156.118 29.5262 155.998C29.9524 155.877 30.3652 155.874 30.7645 155.988C31.1622 156.1 31.5163 156.329 31.8269 156.675ZM31.2973 157.15C31.0614 156.887 30.7999 156.731 30.5128 156.682C30.2256 156.633 29.9356 156.666 29.6426 156.782C29.3496 156.897 29.0749 157.07 28.8185 157.3C28.562 157.53 28.3597 157.785 28.2113 158.065C28.063 158.345 27.9967 158.631 28.0124 158.923C28.0282 159.216 28.154 159.493 28.3898 159.756C28.6257 160.019 28.8881 160.175 29.1769 160.222C29.4657 160.27 29.7575 160.235 30.0521 160.118C30.3467 160.001 30.6222 159.828 30.8787 159.598C31.1351 159.368 31.3367 159.113 31.4833 158.835C31.63 158.556 31.6946 158.271 31.6772 157.981C31.6598 157.69 31.5332 157.413 31.2973 157.15Z" fill="#EEEEEE" fill-opacity="0.5"/>
<path d="M25.446 157.345L24.946 156.731L29.2323 153.24C29.4785 153.039 29.7264 152.908 29.976 152.846C30.2241 152.782 30.4668 152.795 30.704 152.885C30.9399 152.972 31.1623 153.144 31.3714 153.401C31.3883 153.422 31.4053 153.443 31.4222 153.463C31.4392 153.484 31.4561 153.505 31.4731 153.526L30.9009 153.992C30.8839 153.971 30.8684 153.952 30.8543 153.935C30.8402 153.917 30.8246 153.898 30.8077 153.878C30.6551 153.69 30.488 153.599 30.3064 153.602C30.1266 153.605 29.9352 153.688 29.7323 153.854L25.446 157.345ZM24.5344 157.586C24.6319 157.706 24.6752 157.842 24.6643 157.995C24.652 158.146 24.5887 158.269 24.4742 158.362C24.3598 158.455 24.2272 158.492 24.0765 158.474C23.9244 158.454 23.7996 158.384 23.7021 158.264C23.6047 158.144 23.5621 158.009 23.5744 157.857C23.5852 157.704 23.6479 157.581 23.7623 157.488C23.8768 157.395 24.01 157.358 24.1622 157.379C24.3129 157.397 24.437 157.466 24.5344 157.586Z" fill="#EEEEEE" fill-opacity="0.5"/>
<path d="M26.5695 150.267C26.8645 150.666 27.0308 151.075 27.0684 151.495C27.103 151.915 27.0188 152.32 26.816 152.712C26.6101 153.103 26.2948 153.456 25.8703 153.769C25.4457 154.083 25.0144 154.282 24.5763 154.366C24.1351 154.45 23.7207 154.42 23.3331 154.275C22.9423 154.13 22.6087 153.871 22.3323 153.496C22.1729 153.281 22.0514 153.041 21.9679 152.777C21.8844 152.514 21.8598 152.236 21.8941 151.943C21.9267 151.652 22.0373 151.358 22.226 151.06C22.4147 150.762 22.7024 150.47 23.0892 150.185L23.359 149.985L25.7189 153.18L25.1684 153.587L23.2869 151.04C23.0531 151.212 22.8789 151.413 22.7645 151.642C22.6488 151.87 22.601 152.108 22.6211 152.357C22.6399 152.605 22.7343 152.844 22.9044 153.074C23.0917 153.328 23.3168 153.5 23.5796 153.593C23.8392 153.685 24.1055 153.706 24.3782 153.658C24.651 153.609 24.9016 153.5 25.1301 153.332L25.497 153.061C25.81 152.829 26.0355 152.579 26.1735 152.311C26.3083 152.042 26.3606 151.768 26.3304 151.49C26.2985 151.213 26.1875 150.946 25.9974 150.689C25.8739 150.522 25.7389 150.388 25.5924 150.288C25.4429 150.187 25.2839 150.122 25.1155 150.094C24.9452 150.066 24.7682 150.079 24.5845 150.131L24.3027 149.388C24.5592 149.299 24.8231 149.272 25.0944 149.308C25.3638 149.346 25.6257 149.444 25.8799 149.604C26.1324 149.765 26.3622 149.986 26.5695 150.267Z" fill="#EEEEEE" fill-opacity="0.5"/>
<path d="M23.2431 145.481C23.5039 145.887 23.6325 146.299 23.6288 146.716C23.6252 147.133 23.5056 147.528 23.2701 147.903C23.0345 148.277 22.7003 148.603 22.2673 148.881C21.8268 149.163 21.3861 149.332 20.9453 149.386C20.5014 149.439 20.0909 149.381 19.7136 149.211C19.3332 149.041 19.0174 148.76 18.7663 148.368C18.5706 148.063 18.4508 147.752 18.4068 147.435C18.3628 147.118 18.3923 146.816 18.4954 146.529C18.5985 146.243 18.7735 145.994 19.0204 145.782L19.4479 146.449C19.2828 146.626 19.1802 146.851 19.14 147.124C19.0967 147.396 19.1693 147.679 19.3576 147.973C19.5243 148.233 19.7381 148.417 19.9993 148.526C20.2573 148.634 20.5437 148.664 20.8584 148.617C21.1701 148.568 21.4897 148.439 21.8173 148.229C22.1523 148.014 22.4103 147.774 22.5912 147.509C22.7708 147.242 22.8672 146.968 22.8802 146.686C22.8921 146.402 22.8135 146.128 22.6444 145.865C22.5334 145.692 22.4024 145.554 22.2516 145.451C22.1008 145.349 21.9375 145.285 21.7618 145.259C21.5861 145.234 21.4058 145.251 21.2212 145.311L20.7937 144.645C21.0739 144.518 21.3642 144.463 21.6648 144.48C21.9623 144.497 22.2492 144.588 22.5254 144.753C22.7986 144.918 23.0378 145.161 23.2431 145.481Z" fill="#EEEEEE" fill-opacity="0.5"/>
<path d="M15.42 142.652L16.0039 142.322L17.3195 144.645L16.7356 144.976L15.42 142.652ZM15.2779 144.907L14.8879 144.218L19.1617 141.798C19.3563 141.688 19.4863 141.577 19.5516 141.466C19.614 141.353 19.6363 141.243 19.6187 141.135C19.5981 141.026 19.5591 140.921 19.5018 140.819C19.4588 140.743 19.4197 140.683 19.3843 140.639C19.3471 140.596 19.3172 140.561 19.2949 140.536L19.8344 140.045C19.8784 140.082 19.9328 140.137 19.9977 140.211C20.0646 140.284 20.1343 140.384 20.2071 140.513C20.3172 140.707 20.3834 140.922 20.4055 141.156C20.4265 141.388 20.386 141.614 20.2842 141.834C20.1812 142.051 19.9994 142.234 19.7386 142.381L15.2779 144.907Z" fill="#EEEEEE" fill-opacity="0.5"/>
<path d="M14.1138 137.623L14.6137 138.167C14.528 138.261 14.4549 138.371 14.3943 138.5C14.3308 138.627 14.2993 138.773 14.2998 138.938C14.3004 139.103 14.3526 139.288 14.4563 139.494C14.5983 139.776 14.7815 139.978 15.006 140.1C15.2274 140.221 15.437 140.232 15.6347 140.132C15.8104 140.043 15.917 139.91 15.9544 139.73C15.9918 139.551 15.9759 139.309 15.9069 139.003L15.7302 138.235C15.6226 137.774 15.6207 137.39 15.7247 137.085C15.8267 136.78 16.0384 136.547 16.3599 136.385C16.6235 136.252 16.8974 136.209 17.1816 136.256C17.4648 136.301 17.7343 136.428 17.99 136.637C18.2458 136.846 18.4638 137.13 18.6441 137.487C18.8808 137.956 18.9748 138.396 18.9262 138.806C18.8776 139.217 18.6783 139.561 18.3282 139.841L17.8221 139.254C18.0375 139.066 18.1622 138.851 18.1964 138.611C18.2296 138.369 18.1731 138.103 18.0271 137.813C17.861 137.484 17.6591 137.258 17.4217 137.134C17.1812 137.01 16.9621 136.998 16.7644 137.098C16.6047 137.178 16.4991 137.302 16.4476 137.468C16.3942 137.635 16.399 137.848 16.4619 138.107L16.6689 138.964C16.7815 139.436 16.7829 139.824 16.6729 140.127C16.5599 140.429 16.3447 140.661 16.0272 140.821C15.7676 140.952 15.5012 140.995 15.228 140.95C14.9538 140.903 14.6958 140.781 14.4541 140.585C14.2113 140.387 14.0084 140.126 13.8453 139.802C13.6156 139.347 13.5352 138.939 13.604 138.579C13.6717 138.217 13.8417 137.898 14.1138 137.623Z" fill="#EEEEEE" fill-opacity="0.5"/>
<path d="M9.89762 125.095L10.5987 124.865L11.5374 127.72L10.8363 127.951L9.89762 125.095Z" fill="#EEEEEE" fill-opacity="0.5"/>
<path d="M11.8291 120.076L6.79514 121.177L6.63182 120.43L7.41837 120.258L7.40404 120.192C7.11238 120.146 6.86671 120.022 6.66704 119.821C6.46518 119.62 6.32844 119.356 6.2568 119.028C6.18421 118.696 6.19918 118.403 6.3017 118.149C6.40156 117.894 6.57225 117.675 6.81376 117.492L6.8023 117.439C6.51413 117.367 6.26539 117.219 6.0561 116.994C5.84462 116.771 5.69948 116.478 5.62068 116.118C5.5223 115.668 5.58275 115.269 5.80204 114.921C6.01914 114.574 6.42374 114.335 7.01584 114.206L10.3849 113.469L10.554 114.243L7.1849 114.979C6.81347 115.06 6.57022 115.22 6.45514 115.458C6.34006 115.696 6.3126 115.953 6.37278 116.228C6.45014 116.582 6.61714 116.833 6.87376 116.981C7.12819 117.129 7.41818 117.167 7.74373 117.096L11.021 116.38L11.193 117.166L7.74524 117.92C7.45902 117.982 7.24881 118.126 7.11461 118.35C6.97823 118.574 6.94204 118.832 7.00603 119.125C7.04997 119.326 7.14457 119.502 7.28984 119.654C7.43462 119.803 7.61376 119.91 7.82724 119.976C8.03807 120.04 8.26692 120.045 8.51381 119.991L11.66 119.303L11.8291 120.076Z" fill="#EEEEEE" fill-opacity="0.5"/>
<path d="M10.2218 112.248L5.12996 113.039L5.0085 112.256L10.1003 111.466L10.2218 112.248ZM4.21957 112.773C4.24324 112.925 4.21172 113.065 4.12501 113.191C4.03795 113.316 3.92149 113.389 3.77563 113.412C3.62977 113.435 3.4965 113.4 3.37582 113.308C3.2548 113.213 3.18245 113.09 3.15878 112.937C3.1351 112.785 3.16679 112.646 3.25385 112.522C3.34056 112.395 3.45685 112.321 3.60271 112.298C3.74857 112.275 3.88201 112.311 4.00303 112.406C4.12371 112.498 4.19589 112.62 4.21957 112.773Z" fill="#EEEEEE" fill-opacity="0.5"/>
<path d="M9.63635 107.162C9.68654 107.642 9.61632 108.068 9.42569 108.439C9.23506 108.809 8.95042 109.109 8.57178 109.337C8.19315 109.566 7.74803 109.707 7.23643 109.76C6.71593 109.815 6.24661 109.767 5.82846 109.617C5.40786 109.466 5.06723 109.229 4.80655 108.908C4.54341 108.584 4.38768 108.191 4.33934 107.729C4.3017 107.368 4.3345 107.037 4.43775 106.734C4.541 106.43 4.7031 106.174 4.92404 105.964C5.14498 105.755 5.41328 105.611 5.72894 105.533L5.8112 106.32C5.58392 106.405 5.391 106.56 5.23244 106.785C5.07142 107.009 5.00904 107.295 5.04529 107.642C5.07736 107.948 5.18555 108.209 5.36987 108.424C5.55174 108.636 5.79399 108.792 6.09664 108.891C6.39682 108.988 6.74043 109.016 7.12747 108.976C7.52341 108.934 7.86167 108.836 8.14227 108.681C8.42264 108.523 8.63205 108.321 8.77049 108.075C8.9087 107.827 8.96154 107.547 8.929 107.236C8.90762 107.031 8.85263 106.849 8.76402 106.69C8.67542 106.53 8.55834 106.4 8.41279 106.298C8.26725 106.196 8.0985 106.131 7.90654 106.101L7.82428 105.314C8.13144 105.327 8.41542 105.408 8.67623 105.559C8.93459 105.707 9.14994 105.918 9.32227 106.19C9.49215 106.46 9.59684 106.784 9.63635 107.162Z" fill="#EEEEEE" fill-opacity="0.5"/>
<path d="M9.18379 103.221L4.03748 103.479L3.99913 102.715L4.77643 102.676L4.77374 102.622C4.5144 102.541 4.29926 102.382 4.12834 102.144C3.95741 101.906 3.86421 101.633 3.84874 101.325C3.84582 101.267 3.84329 101.195 3.84115 101.107C3.83901 101.02 3.83906 100.954 3.84128 100.909L4.64539 100.869C4.64004 100.896 4.63307 100.958 4.62449 101.055C4.61356 101.149 4.61074 101.249 4.61601 101.354C4.62857 101.604 4.69227 101.825 4.80712 102.016C4.91963 102.205 5.07032 102.352 5.2592 102.457C5.44573 102.56 5.65514 102.605 5.88744 102.593L9.14409 102.43L9.18379 103.221Z" fill="#EEEEEE" fill-opacity="0.5"/>
<path d="M9.11816 97.5587C9.11636 98.0239 9.00408 98.4316 8.78132 98.7818C8.55857 99.1299 8.24777 99.4015 7.84892 99.5968C7.45009 99.7898 6.98453 99.8853 6.45226 99.8833C5.91551 99.8812 5.44736 99.7821 5.04778 99.586C4.64822 99.3876 4.33841 99.1136 4.11835 98.7638C3.8983 98.4119 3.78917 98.0033 3.79097 97.5381C3.79276 97.0729 3.90504 96.6663 4.12779 96.3183C4.35055 95.968 4.66247 95.6964 5.06354 95.5034C5.46463 95.3081 5.93354 95.2115 6.47028 95.2136C7.00256 95.2156 7.46736 95.3158 7.86468 95.5142C8.26202 95.7103 8.57071 95.9843 8.79076 96.3363C9.01082 96.686 9.11996 97.0935 9.11816 97.5587ZM8.40697 97.5559C8.40834 97.2026 8.31888 96.9115 8.13861 96.6827C7.95834 96.4539 7.72081 96.2841 7.42603 96.1734C7.13124 96.0626 6.81164 96.0066 6.46723 96.0053C6.12282 96.0039 5.80168 96.0575 5.50381 96.1659C5.20594 96.2744 4.96487 96.4423 4.7806 96.6697C4.59633 96.8971 4.50352 97.1875 4.50215 97.5409C4.50079 97.8942 4.59136 98.1853 4.77387 98.4141C4.95637 98.643 5.19614 98.8127 5.49316 98.9235C5.79019 99.0342 6.1109 99.0902 6.45531 99.0916C6.79973 99.0929 7.11975 99.0393 7.41538 98.9309C7.71101 98.8224 7.94985 98.6545 8.13188 98.4271C8.31391 98.1997 8.40561 97.9093 8.40697 97.5559Z" fill="#EEEEEE" fill-opacity="0.5"/>
<path d="M11.1355 91.2222L4.08596 90.5132L4.16251 89.7521L4.97694 89.8341L4.98634 89.7406C4.90315 89.6738 4.79772 89.5823 4.67005 89.466C4.54038 89.3473 4.43077 89.1857 4.3412 88.9812C4.24964 88.7742 4.22064 88.5038 4.25422 88.17C4.29764 87.7383 4.44383 87.3686 4.69281 87.061C4.94178 86.7534 5.2736 86.5271 5.68827 86.3823C6.10293 86.2374 6.57952 86.1921 7.11802 86.2462C7.66098 86.3009 8.12233 86.4405 8.50207 86.6653C8.87958 86.8898 9.16092 87.1766 9.34609 87.5257C9.52904 87.8745 9.59902 88.2625 9.55605 88.6898C9.52292 89.0191 9.44188 89.2773 9.31292 89.4644C9.18174 89.6512 9.04069 89.791 8.88975 89.8837C8.7366 89.9762 8.61038 90.0467 8.5111 90.0951L8.50438 90.1619L11.2147 90.4345L11.1355 91.2222ZM6.72731 89.9966C7.1145 90.0356 7.46178 90.0132 7.76915 89.9295C8.07429 89.8455 8.32128 89.7029 8.51011 89.5016C8.69671 89.3001 8.8059 89.0414 8.83768 88.7254C8.87081 88.3961 8.81167 88.1125 8.66026 87.8748C8.50685 87.6346 8.28776 87.4439 8.00299 87.3029C7.71623 87.1594 7.39038 87.0693 7.02544 87.0326C6.66495 86.9964 6.33448 87.0193 6.034 87.1015C5.73153 87.1812 5.48455 87.3238 5.29305 87.5293C5.09955 87.7324 4.98601 88.0008 4.95244 88.3346C4.92021 88.655 4.97434 88.9325 5.11485 89.1669C5.25313 89.4011 5.46132 89.5883 5.73941 89.7287C6.01527 89.8688 6.34457 89.9581 6.72731 89.9966Z" fill="#EEEEEE" fill-opacity="0.5"/>
<path d="M9.87084 85.0961L4.77904 84.3056L4.89638 83.5498L5.66546 83.6692L5.67369 83.6161C5.43616 83.4842 5.25781 83.2845 5.13865 83.017C5.01948 82.7496 4.98357 82.4634 5.03092 82.1584C5.03984 82.1009 5.05209 82.0293 5.06768 81.9434C5.08327 81.8576 5.09671 81.7929 5.10799 81.7494L5.90359 81.8729C5.89284 81.8984 5.87346 81.9576 5.84545 82.0506C5.81557 82.141 5.79256 82.2381 5.77644 82.342C5.73801 82.5895 5.75563 82.8186 5.82931 83.0292C5.90112 83.2373 6.01889 83.4117 6.18261 83.5525C6.34446 83.6908 6.5403 83.7778 6.77014 83.8135L9.99229 84.3137L9.87084 85.0961Z" fill="#EEEEEE" fill-opacity="0.5"/>
<path d="M10.9672 79.4706C10.8713 79.9258 10.6789 80.3024 10.3899 80.6003C10.1013 80.8961 9.74199 81.0993 9.31188 81.2098C8.88224 81.3182 8.407 81.3175 7.88614 81.2078C7.36092 81.0972 6.92249 80.9054 6.57085 80.6325C6.21968 80.3575 5.97171 80.0264 5.82695 79.6394C5.68266 79.2502 5.65844 78.828 5.75431 78.3728C5.85017 77.9176 6.04238 77.5421 6.33094 77.2463C6.61995 76.9484 6.98038 76.7454 7.41221 76.6375C7.8445 76.5274 8.32326 76.5277 8.84848 76.6383C9.36933 76.748 9.80425 76.9402 10.1532 77.2148C10.5027 77.4872 10.7496 77.8181 10.8939 78.2073C11.0386 78.5943 11.0631 79.0154 10.9672 79.4706ZM10.2713 79.324C10.3441 78.9783 10.3154 78.6751 10.1851 78.4145C10.0549 78.154 9.85659 77.9397 9.5903 77.7716C9.32401 77.6035 9.02235 77.484 8.68533 77.413C8.34831 77.3421 8.02297 77.3295 7.70933 77.3755C7.39568 77.4214 7.12562 77.5371 6.89916 77.7225C6.6727 77.9079 6.52305 78.1735 6.45023 78.5193C6.37741 78.8651 6.40722 79.1685 6.53967 79.4295C6.67211 79.6905 6.87257 79.9053 7.14105 80.0738C7.40953 80.2424 7.71228 80.3621 8.0493 80.4331C8.38632 80.5041 8.71056 80.5164 9.02202 80.47C9.33348 80.4236 9.60135 80.3074 9.82562 80.1215C10.0499 79.9356 10.1984 79.6698 10.2713 79.324Z" fill="#EEEEEE" fill-opacity="0.5"/>
<path d="M6.72436 74.4544L6.92563 73.6887L12.2725 75.0942C12.5796 75.1749 12.8318 75.2979 13.0289 75.463C13.2265 75.6259 13.3591 75.8296 13.4267 76.074C13.4948 76.3162 13.4868 76.5974 13.4027 76.9175C13.3959 76.9434 13.389 76.9694 13.3822 76.9953C13.3754 77.0213 13.3686 77.0473 13.3617 77.0732L12.648 76.8856C12.6548 76.8596 12.661 76.8358 12.6667 76.8142C12.6724 76.7926 12.6787 76.7688 12.6855 76.7428C12.7469 76.5092 12.7226 76.3202 12.6126 76.1756C12.5048 76.0316 12.3243 75.9264 12.0712 75.8599L6.72436 74.4544ZM5.99271 73.8597C5.95348 74.0089 5.86882 74.1243 5.73873 74.2057C5.60921 74.285 5.47307 74.3058 5.33031 74.2683C5.18756 74.2308 5.07928 74.1457 5.00548 74.013C4.93225 73.8781 4.91525 73.736 4.95448 73.5868C4.99371 73.4375 5.07809 73.3233 5.20761 73.244C5.33769 73.1626 5.47412 73.1406 5.61687 73.1782C5.75963 73.2157 5.86762 73.3019 5.94085 73.4368C6.01465 73.5695 6.03194 73.7105 5.99271 73.8597Z" fill="#EEEEEE" fill-opacity="0.5"/>
<path d="M13.1745 70.9969C13.0248 71.4703 12.7912 71.8456 12.4736 72.1229C12.1546 72.3973 11.7771 72.5676 11.341 72.6338C10.9034 72.6971 10.4331 72.6492 9.92981 72.4901C9.42657 72.331 9.01203 72.099 8.68619 71.7943C8.35889 71.4867 8.13981 71.1336 8.02896 70.735C7.91665 70.3336 7.93062 69.9111 8.07087 69.4675C8.15179 69.2117 8.27434 68.9725 8.43853 68.7499C8.60271 68.5274 8.81313 68.3441 9.06978 68.2001C9.32429 68.0554 9.6275 67.9719 9.97939 67.9494C10.3313 67.927 10.7365 67.9883 11.1949 68.1333L11.5148 68.2344L10.3172 72.0215L9.66473 71.8152L10.6195 68.7957C10.3423 68.7081 10.0774 68.6853 9.82487 68.7274C9.57297 68.7674 9.35209 68.8688 9.16223 69.0316C8.97303 69.1922 8.83528 69.409 8.74897 69.682C8.65389 69.9826 8.64626 70.2664 8.72608 70.5332C8.80443 70.7972 8.94341 71.0253 9.14302 71.2175C9.34263 71.4096 9.57784 71.5485 9.84865 71.6341L10.2837 71.7717C10.6547 71.889 10.9894 71.9245 11.2879 71.8781C11.5849 71.829 11.837 71.7105 12.0442 71.5227C12.2492 71.3342 12.4 71.0875 12.4964 70.7825C12.5591 70.5842 12.588 70.3963 12.5831 70.2189C12.5768 70.0386 12.5357 69.872 12.4598 69.7189C12.3817 69.5652 12.2675 69.4294 12.1171 69.3115L12.5524 68.647C12.7755 68.802 12.9522 68.9998 13.0826 69.2403C13.2108 69.4803 13.285 69.75 13.3052 70.0496C13.3232 70.3485 13.2797 70.6643 13.1745 70.9969Z" fill="#EEEEEE" fill-opacity="0.5"/>
<path d="M14.9533 65.8956C14.7785 66.3459 14.5216 66.6925 14.1827 66.9352C13.8438 67.1779 13.4538 67.3144 13.0126 67.3447C12.5715 67.375 12.1111 67.2971 11.6316 67.111C11.1437 66.9216 10.7479 66.6649 10.4443 66.3407C10.1394 66.0137 9.94442 65.6477 9.85927 65.2428C9.77284 64.835 9.81378 64.4143 9.98209 63.9806C10.1132 63.6429 10.2939 63.3627 10.5242 63.1403C10.7544 62.9178 11.0158 62.7637 11.3081 62.678C11.6004 62.5924 11.9048 62.587 12.2212 62.6618L11.9348 63.3998C11.694 63.3712 11.4516 63.421 11.2074 63.5494C10.962 63.6748 10.7762 63.9002 10.65 64.2254C10.5383 64.5132 10.5154 64.7946 10.5814 65.0697C10.6461 65.3419 10.7905 65.591 11.0146 65.8171C11.2374 66.0404 11.5302 66.2224 11.893 66.3632C12.2641 66.5072 12.6099 66.5743 12.9305 66.5643C13.2518 66.5523 13.5302 66.4684 13.7658 66.3128C14.0021 66.155 14.177 65.9302 14.2902 65.6383C14.3647 65.4465 14.3989 65.2594 14.3929 65.0772C14.3868 64.8949 14.3423 64.7253 14.2593 64.5683C14.1763 64.4113 14.0561 64.2759 13.8988 64.1621L14.1852 63.424C14.4526 63.5758 14.6679 63.7781 14.8313 64.031C14.9933 64.281 15.0889 64.5664 15.1179 64.8872C15.1457 65.205 15.0908 65.5412 14.9533 65.8956Z" fill="#EEEEEE" fill-opacity="0.5"/>
<path d="M12.4036 58.4046L13.0156 58.6797L11.9206 61.1152L11.3086 60.8401L12.4036 58.4046ZM10.5018 59.624L10.8265 58.9019L15.3058 60.9159C15.5098 61.0076 15.6761 61.0468 15.8047 61.0335C15.9321 61.0172 16.0343 60.97 16.1112 60.8917C16.1869 60.8105 16.2486 60.7169 16.2963 60.6108C16.3321 60.5313 16.3573 60.4642 16.3721 60.4095C16.3848 60.3539 16.395 60.3095 16.4026 60.2761L17.1173 60.4209C17.1137 60.4781 17.1013 60.5547 17.0802 60.6506C17.0612 60.7475 17.0214 60.8633 16.9609 60.9979C16.8692 61.2019 16.7354 61.3821 16.5597 61.5384C16.3849 61.6928 16.1788 61.7939 15.9415 61.8417C15.7052 61.8874 15.4503 61.8489 15.177 61.726L10.5018 59.624Z" fill="#EEEEEE" fill-opacity="0.5"/>
<path d="M15.6895 54.3436L15.5462 55.0687C15.4203 55.0548 15.2877 55.0613 15.1485 55.0883C15.0083 55.1123 14.8718 55.1734 14.7391 55.2714C14.6064 55.3695 14.4878 55.5212 14.3833 55.7265C14.2402 56.0075 14.1858 56.2747 14.22 56.528C14.2532 56.7783 14.3685 56.9536 14.5658 57.054C14.7412 57.1433 14.9122 57.15 15.0788 57.0742C15.2453 56.9984 15.4315 56.8422 15.6372 56.6056L16.1516 56.0092C16.4603 55.6493 16.7685 55.421 17.0762 55.3242C17.382 55.2264 17.6953 55.2591 18.0162 55.4224C18.2793 55.5564 18.4759 55.7518 18.6061 56.0088C18.7373 56.2638 18.7942 56.5562 18.7769 56.8862C18.7595 57.2161 18.66 57.5595 18.4784 57.9162C18.24 58.3846 17.941 58.7206 17.5815 58.924C17.222 59.1275 16.8261 59.1707 16.3939 59.0535L16.5673 58.2986C16.8469 58.3606 17.0936 58.3344 17.3075 58.2199C17.5224 58.1034 17.7034 57.9007 17.8505 57.6117C18.0179 57.2828 18.081 56.9862 18.0399 56.7219C17.9978 56.4545 17.8781 56.2706 17.6808 56.1702C17.5213 56.089 17.3594 56.0769 17.1949 56.1337C17.0285 56.1895 16.8595 56.3193 16.688 56.5231L16.1191 57.1972C15.8054 57.567 15.4937 57.7973 15.184 57.8881C14.8733 57.9759 14.5595 57.9392 14.2426 57.7779C13.9835 57.646 13.7913 57.4566 13.666 57.2096C13.5418 56.9607 13.4873 56.6807 13.5025 56.3698C13.5188 56.0568 13.609 55.7389 13.7734 55.416C14.0047 54.9616 14.2859 54.6556 14.6171 54.4979C14.9493 54.3383 15.3068 54.2868 15.6895 54.3436Z" fill="#EEEEEE" fill-opacity="0.5"/>
<path d="M21.732 45.6854L22.3458 46.0952L20.6769 48.5951L20.0631 48.1853L21.732 45.6854Z" fill="#EEEEEE" fill-opacity="0.5"/>
<path d="M26.9849 43.9653L23.0136 40.6818L23.501 40.0924L24.1215 40.6054L24.1643 40.5537C24.0207 40.2957 23.9665 40.026 24.0018 39.7447C24.0354 39.4619 24.159 39.1913 24.3728 38.9327C24.5894 38.6707 24.8291 38.5019 25.092 38.4261C25.3546 38.3472 25.6325 38.3463 25.9257 38.4233L25.9599 38.3819C25.8389 38.1107 25.8021 37.8235 25.8496 37.5203C25.8954 37.2157 26.0359 36.9213 26.271 36.6369C26.5646 36.2818 26.9159 36.0833 27.3249 36.0413C27.7322 35.998 28.1694 36.1694 28.6365 36.5556L31.2943 38.7531L30.7898 39.3632L28.132 37.1657C27.839 36.9235 27.5633 36.8305 27.305 36.8867C27.0466 36.943 26.8277 37.0797 26.6481 37.2969C26.4172 37.5761 26.3228 37.8622 26.3649 38.1553C26.4053 38.4469 26.5539 38.6989 26.8107 38.9113L29.3961 41.0489L28.8831 41.6694L26.1632 39.4206C25.9374 39.2339 25.695 39.1568 25.436 39.1893C25.1752 39.2204 24.9494 39.3514 24.7584 39.5824C24.6273 39.741 24.547 39.9241 24.5174 40.1318C24.4893 40.3378 24.5153 40.545 24.5954 40.7535C24.6753 40.9588 24.8126 41.1419 25.0073 41.303L27.4893 43.3551L26.9849 43.9653Z" fill="#EEEEEE" fill-opacity="0.5"/>
<path d="M32.3023 37.7176L28.5415 34.1951L29.0827 33.6173L32.8435 37.1398L32.3023 37.7176ZM28.1899 33.3142C28.0844 33.4269 27.9551 33.4881 27.8019 33.4978C27.6503 33.5059 27.5206 33.4595 27.4129 33.3586C27.3052 33.2577 27.2504 33.1314 27.2486 32.9795C27.2483 32.8261 27.3009 32.693 27.4064 32.5804C27.5119 32.4678 27.6405 32.4074 27.7921 32.3993C27.9453 32.3895 28.0757 32.4351 28.1834 32.536C28.2912 32.6369 28.3452 32.7641 28.3454 32.9175C28.3472 33.0694 28.2954 33.2016 28.1899 33.3142Z" fill="#EEEEEE" fill-opacity="0.5"/>
<path d="M35.6697 34.4004C35.3231 34.737 34.9453 34.945 34.5361 35.0245C34.1269 35.1039 33.7154 35.0655 33.3018 34.9093C32.8881 34.753 32.502 34.4904 32.1436 34.1214C31.779 33.746 31.5262 33.3478 31.3852 32.9266C31.2443 32.5023 31.2195 32.0883 31.3108 31.6848C31.4021 31.278 31.6146 30.9126 31.9483 30.5885C32.2081 30.3361 32.4891 30.1567 32.7911 30.0504C33.0932 29.944 33.3949 29.9128 33.6964 29.9568C33.9978 30.0007 34.2768 30.1226 34.5333 30.3224L33.9654 30.874C33.7584 30.7477 33.5173 30.692 33.2418 30.7069C32.9665 30.7188 32.7037 30.8462 32.4534 31.0893C32.232 31.3043 32.094 31.5506 32.0394 31.8282C31.9848 32.1026 32.0122 32.3893 32.1218 32.6882C32.2313 32.984 32.4217 33.2714 32.6928 33.5505C32.9702 33.8361 33.2566 34.0411 33.5522 34.1656C33.8493 34.2886 34.1374 34.3283 34.4164 34.2849C34.6969 34.24 34.9495 34.1084 35.1741 33.8903C35.3217 33.7469 35.4307 33.5911 35.5012 33.4229C35.5716 33.2547 35.6018 33.082 35.5918 32.9047C35.5817 32.7274 35.5288 32.5543 35.4332 32.3852L36.0011 31.8336C36.181 32.0829 36.2925 32.3566 36.3356 32.6545C36.3787 32.9493 36.3467 33.2486 36.2395 33.5523C36.1323 33.8528 35.9424 34.1355 35.6697 34.4004Z" fill="#EEEEEE" fill-opacity="0.5"/>
<path d="M38.5187 31.5779L35.1352 27.6916L35.7121 27.1893L36.2231 27.7763L36.2636 27.7411C36.167 27.4871 36.1594 27.2195 36.2407 26.9382C36.322 26.6569 36.479 26.4149 36.7118 26.2122C36.7556 26.1741 36.8112 26.1272 36.8784 26.0716C36.9457 26.016 36.9976 25.9752 37.0343 25.9492L37.563 26.5564C37.5383 26.569 37.4853 26.6018 37.404 26.6548C37.3229 26.7047 37.2427 26.7641 37.1634 26.8332C36.9745 26.9976 36.8403 27.1841 36.7609 27.3926C36.6817 27.598 36.6593 27.8073 36.6937 28.0205C36.7283 28.2305 36.822 28.4233 36.9747 28.5987L39.1158 31.058L38.5187 31.5779Z" fill="#EEEEEE" fill-opacity="0.5"/>
<path d="M42.7348 28.182C42.3688 28.4692 41.9794 28.6341 41.5665 28.6767C41.1554 28.7179 40.7495 28.6427 40.3489 28.451C39.9501 28.2579 39.5864 27.952 39.2577 27.5333C38.9264 27.1111 38.7137 26.6824 38.6196 26.2474C38.5273 25.8109 38.55 25.3979 38.6878 25.0084C38.8273 24.6174 39.0801 24.2784 39.446 23.9912C39.812 23.704 40.2005 23.5398 40.6117 23.4986C41.0246 23.456 41.4311 23.5321 41.8313 23.7269C42.2333 23.9204 42.6 24.2282 42.9313 24.6504C43.2599 25.0692 43.4697 25.4959 43.5607 25.9306C43.6533 26.3638 43.6299 26.776 43.4904 27.1669C43.3526 27.5565 43.1008 27.8948 42.7348 28.182ZM42.2957 27.6225C42.5737 27.4044 42.7465 27.1537 42.8141 26.8703C42.8818 26.587 42.8676 26.2954 42.7715 25.9955C42.6755 25.6956 42.5211 25.4102 42.3085 25.1392C42.0959 24.8683 41.8547 24.6496 41.5848 24.4833C41.315 24.3169 41.0337 24.232 40.741 24.2286C40.4484 24.2252 40.163 24.3325 39.8851 24.5507C39.6071 24.7688 39.435 25.0204 39.3687 25.3055C39.3025 25.5906 39.3181 25.884 39.4155 26.1857C39.5129 26.4873 39.6679 26.7736 39.8806 27.0446C40.0932 27.3155 40.3337 27.5333 40.6022 27.6978C40.8707 27.8624 41.1505 27.9456 41.4418 27.9472C41.7331 27.9489 42.0178 27.8407 42.2957 27.6225Z" fill="#EEEEEE" fill-opacity="0.5"/>
<path d="M49.1402 25.7224L45.3368 19.7447L45.9821 19.3341L46.4215 20.0247L46.5007 19.9743C46.5018 19.8676 46.5085 19.7282 46.5208 19.5559C46.5339 19.3806 46.5931 19.1945 46.6984 18.9976C46.8044 18.7976 46.9989 18.6076 47.282 18.4275C47.648 18.1946 48.0289 18.0808 48.4246 18.0862C48.8204 18.0915 49.2034 18.2123 49.5737 18.4485C49.944 18.6847 50.2744 19.0312 50.565 19.4878C50.8579 19.9482 51.0335 20.3971 51.0918 20.8345C51.1489 21.27 51.0976 21.6685 50.9379 22.0299C50.7769 22.3894 50.5153 22.6844 50.1531 22.9149C49.8738 23.0926 49.6208 23.1886 49.394 23.203C49.1661 23.2155 48.969 23.1911 48.8028 23.1299C48.6354 23.0668 48.5019 23.0112 48.4024 22.9631L48.3458 22.9992L49.8081 25.2974L49.1402 25.7224ZM47.3765 21.5006C47.5854 21.8289 47.8178 22.088 48.0737 22.2777C48.3284 22.4655 48.5932 22.5714 48.8682 22.5952C49.1419 22.6172 49.4128 22.543 49.6807 22.3725C49.96 22.1948 50.1462 21.9729 50.2393 21.7069C50.3332 21.4378 50.3474 21.1477 50.2821 20.8367C50.2175 20.5227 50.0867 20.2109 49.8898 19.9015C49.6953 19.5958 49.4728 19.3503 49.2224 19.165C48.9727 18.9767 48.7079 18.8708 48.4279 18.8475C48.1487 18.8211 47.8675 18.8979 47.5845 19.078C47.3128 19.2508 47.1283 19.465 47.031 19.7204C46.9326 19.9739 46.9142 20.2533 46.9759 20.5586C47.0364 20.8621 47.17 21.1761 47.3765 21.5006Z" fill="#EEEEEE" fill-opacity="0.5"/>
<path d="M52.8693 21.1226L50.3307 16.6386L50.9963 16.2618L51.3797 16.939L51.4264 16.9126C51.3826 16.6444 51.4286 16.3807 51.5644 16.1213C51.7003 15.8619 51.9025 15.6562 52.171 15.5041C52.2216 15.4755 52.2854 15.4407 52.3624 15.3996C52.4394 15.3586 52.4985 15.329 52.5396 15.3109L52.9363 16.0115C52.9096 16.0189 52.8512 16.0404 52.7609 16.0761C52.6714 16.1088 52.581 16.151 52.4895 16.2028C52.2715 16.3262 52.1028 16.4821 51.9833 16.6706C51.8647 16.8559 51.8009 17.0565 51.792 17.2723C51.7839 17.485 51.8372 17.6926 51.9518 17.895L53.5583 20.7326L52.8693 21.1226Z" fill="#EEEEEE" fill-opacity="0.5"/>
<path d="M57.7518 18.5987C57.3357 18.8066 56.9211 18.89 56.508 18.8489C56.097 18.8068 55.7145 18.6517 55.3605 18.3836C55.0085 18.1144 54.7135 17.7418 54.4756 17.2657C54.2357 16.7855 54.1133 16.3229 54.1084 15.8778C54.1055 15.4318 54.2106 15.0317 54.4237 14.6777C54.6388 14.3227 54.9545 14.0412 55.3706 13.8333C55.7867 13.6254 56.2003 13.5424 56.6114 13.5846C57.0244 13.6257 57.4075 13.7818 57.7604 14.0529C58.1154 14.323 58.4129 14.6982 58.6528 15.1783C58.8907 15.6545 59.0107 16.1146 59.0125 16.5587C59.0164 17.0017 58.9108 17.4008 58.6957 17.7558C58.4826 18.1098 58.1679 18.3908 57.7518 18.5987ZM57.4339 17.9625C57.75 17.8046 57.9696 17.5936 58.0927 17.3296C58.2158 17.0655 58.2604 16.777 58.2264 16.4639C58.1925 16.1509 58.0986 15.8403 57.9446 15.5322C57.7907 15.2241 57.5982 14.9615 57.3672 14.7444C57.1362 14.5273 56.8777 14.3878 56.5917 14.3257C56.3056 14.2636 56.0046 14.3115 55.6885 14.4695C55.3724 14.6274 55.1533 14.8394 55.0312 15.1054C54.9091 15.3714 54.8655 15.662 54.9005 15.977C54.9354 16.2921 55.0298 16.6037 55.1838 16.9118C55.3377 17.2199 55.5297 17.4815 55.7597 17.6966C55.9897 17.9116 56.2472 18.0492 56.5322 18.1093C56.8173 18.1694 57.1178 18.1205 57.4339 17.9625Z" fill="#EEEEEE" fill-opacity="0.5"/>
<path d="M59.3528 12.0142L60.0785 11.6976L62.289 16.765C62.416 17.056 62.4758 17.3301 62.4683 17.5871C62.4629 17.8432 62.3853 18.0735 62.2353 18.278C62.0875 18.4816 61.8618 18.6495 61.5584 18.7819C61.5338 18.7926 61.5093 18.8033 61.4847 18.8141C61.4601 18.8248 61.4355 18.8355 61.4109 18.8463L61.1158 18.1698C61.1404 18.1591 61.1629 18.1492 61.1834 18.1403C61.2039 18.1313 61.2265 18.1215 61.2511 18.1108C61.4724 18.0142 61.6058 17.878 61.651 17.7021C61.6972 17.5282 61.668 17.3213 61.5633 17.0815L59.3528 12.0142ZM59.3661 11.0714C59.2247 11.1331 59.0817 11.1381 58.9372 11.0865C58.7947 11.034 58.694 10.9401 58.6349 10.8048C58.5759 10.6695 58.5756 10.5317 58.634 10.3916C58.6945 10.2505 58.7955 10.1491 58.9369 10.0874C59.0783 10.0257 59.2203 10.0212 59.3628 10.0737C59.5073 10.1253 59.6091 10.2188 59.6681 10.3541C59.7271 10.4894 59.7264 10.6275 59.6659 10.7686C59.6075 10.9088 59.5076 11.0097 59.3661 11.0714Z" fill="#EEEEEE" fill-opacity="0.5"/>
<path d="M66.003 14.9582C65.5388 15.1343 65.0995 15.1838 64.6851 15.1067C64.272 15.0266 63.9042 14.8361 63.5819 14.535C63.2608 14.2311 63.0066 13.8324 62.8193 13.3389C62.6321 12.8455 62.5569 12.3764 62.5939 11.9318C62.6322 11.4843 62.7733 11.0935 63.0173 10.7593C63.2625 10.4222 63.6026 10.1712 64.0375 10.0061C64.2884 9.91089 64.5521 9.85868 64.8284 9.84947C65.1048 9.84027 65.3791 9.89167 65.6512 10.0037C65.9226 10.1136 66.1762 10.2996 66.412 10.5618C66.6479 10.8239 66.8511 11.1797 67.0217 11.6293L67.1407 11.9429L63.4272 13.3522L63.1844 12.7124L66.1452 11.5888C66.042 11.3169 65.8956 11.095 65.7059 10.923C65.5183 10.7502 65.3018 10.6398 65.0564 10.5918C64.813 10.5431 64.5575 10.5695 64.2899 10.671C63.995 10.7829 63.7677 10.9529 63.6079 11.181C63.4494 11.4062 63.3566 11.6567 63.3297 11.9324C63.3028 12.2082 63.3397 12.4788 63.4405 12.7444L63.6024 13.1709C63.7405 13.5348 63.9202 13.8194 64.1417 14.0248C64.3645 14.2273 64.6138 14.3515 64.8896 14.3976C65.1646 14.4415 65.4516 14.4067 65.7506 14.2933C65.9451 14.2195 66.1104 14.1256 66.2466 14.0117C66.3841 13.895 66.4893 13.7594 66.5622 13.6049C66.6344 13.4483 66.6701 13.2745 66.6693 13.0834L67.4606 13.0128C67.4774 13.2839 67.4318 13.5452 67.3239 13.7966C67.2152 14.046 67.0497 14.2715 66.8272 14.4732C66.6039 14.6727 66.3292 14.8344 66.003 14.9582Z" fill="#EEEEEE" fill-opacity="0.5"/>
<path d="M71.2054 13.1598C70.7437 13.3019 70.3126 13.3154 69.912 13.2C69.5114 13.0847 69.1625 12.8633 68.8651 12.536C68.5678 12.2087 68.3434 11.7993 68.192 11.3077C68.038 10.8075 67.994 10.3378 68.06 9.89863C68.1275 9.45663 68.2937 9.07669 68.5585 8.75879C68.8248 8.4381 69.1802 8.20931 69.6248 8.07241C69.9711 7.96578 70.3029 7.93381 70.6202 7.9765C70.9376 8.01918 71.2205 8.12863 71.469 8.30484C71.7175 8.48105 71.9105 8.71647 72.048 9.0111L71.2914 9.24409C71.1645 9.03743 70.9751 8.87814 70.723 8.76622C70.4724 8.6515 70.1804 8.64548 69.8469 8.74816C69.552 8.83898 69.317 8.99557 69.1421 9.21791C68.9687 9.43746 68.8628 9.70525 68.8244 10.0213C68.7874 10.3345 68.8262 10.6771 68.9408 11.049C69.0579 11.4295 69.2198 11.7424 69.4264 11.9876C69.6351 12.2323 69.8735 12.3987 70.1417 12.4869C70.4121 12.5745 70.6968 12.5722 70.9961 12.4801C71.1927 12.4195 71.3607 12.3304 71.4999 12.2126C71.6392 12.0949 71.7446 11.9547 71.8163 11.7923C71.8879 11.6298 71.9196 11.4516 71.9114 11.2575L72.668 11.0245C72.7148 11.3284 72.6896 11.6228 72.5925 11.9078C72.4968 12.19 72.3322 12.4419 72.0986 12.6636C71.8665 12.8825 71.5687 13.0479 71.2054 13.1598Z" fill="#EEEEEE" fill-opacity="0.5"/>
<path d="M75.6383 6.48477L75.8014 7.13556L73.2113 7.78496L73.0481 7.13416L75.6383 6.48477ZM73.5028 5.74743L74.2708 5.5549L75.4651 10.3187C75.5195 10.5356 75.5918 10.6905 75.6819 10.7831C75.7736 10.8731 75.874 10.924 75.983 10.9359C76.0937 10.9451 76.2054 10.9355 76.3182 10.9072C76.4028 10.886 76.4711 10.8642 76.5232 10.842C76.5747 10.8175 76.6159 10.798 76.6468 10.7833L76.976 11.434C76.9288 11.4666 76.861 11.5043 76.7726 11.5472C76.6848 11.5923 76.5693 11.6328 76.4261 11.6687C76.2092 11.7231 75.9849 11.7297 75.7533 11.6887C75.5238 11.6471 75.3168 11.5479 75.1323 11.3913C74.9499 11.2341 74.8223 11.0102 74.7494 10.7195L73.5028 5.74743Z" fill="#EEEEEE" fill-opacity="0.5"/>
<path d="M81.0396 6.52437L80.3813 6.86037C80.3143 6.75283 80.2271 6.65272 80.1198 6.56003C80.0142 6.46472 79.8819 6.39525 79.7227 6.35163C79.5635 6.308 79.371 6.30863 79.145 6.35352C78.8358 6.41497 78.5922 6.53746 78.4143 6.72101C78.2382 6.90193 78.1717 7.10097 78.2148 7.31814C78.2532 7.51117 78.3537 7.64968 78.5163 7.73366C78.6789 7.81764 78.9168 7.86729 79.2299 7.88261L80.0167 7.91782C80.4904 7.93773 80.8605 8.03864 81.1269 8.22057C81.3929 8.4003 81.561 8.66675 81.6312 9.01991C81.6887 9.30947 81.6567 9.58487 81.5354 9.84612C81.4162 10.1069 81.2216 10.3326 80.9516 10.523C80.6816 10.7135 80.3503 10.8477 79.9576 10.9257C79.4421 11.0281 78.9933 11.001 78.611 10.8444C78.2287 10.6877 77.9499 10.4034 77.7746 9.99131L78.475 9.66062C78.5992 9.91868 78.7725 10.0963 78.9947 10.1935C79.2192 10.2903 79.4904 10.3071 79.8085 10.2439C80.1704 10.172 80.4425 10.0381 80.6248 9.84232C80.8089 9.64387 80.8793 9.43606 80.8361 9.2189C80.8013 9.04341 80.7107 8.90864 80.5643 8.8146C80.4175 8.71835 80.211 8.66589 79.9447 8.65722L79.0632 8.62714C78.5786 8.60942 78.2048 8.50696 77.9418 8.31978C77.6807 8.12997 77.5155 7.86067 77.4462 7.51189C77.3895 7.22673 77.4195 6.95856 77.536 6.70739C77.6548 6.45578 77.841 6.23979 78.0947 6.0594C78.3507 5.87859 78.6563 5.75288 79.0117 5.68228C79.5118 5.58292 79.9263 5.61459 80.255 5.7773C80.586 5.93957 80.8475 6.18859 81.0396 6.52437Z" fill="#EEEEEE" fill-opacity="0.5"/>
<path d="M91.7192 5.93657L91.7761 6.6724L88.7792 6.90406L88.7224 6.16822L91.7192 5.93657Z" fill="#EEEEEE" fill-opacity="0.5"/>
</svg>
