<svg width="69" height="79" viewBox="0 0 69 79" fill="none" xmlns="http://www.w3.org/2000/svg">
<path d="M49.4745 22.885L56.3501 29.7606C57.0575 30.468 57.0575 31.6149 56.3501 32.3222L46.4774 42.195L36.7396 33.0582L46.9129 22.885C47.6202 22.1776 48.7671 22.1776 49.4745 22.885Z" fill="url(#paint0_linear_254_498)"/>
<path d="M27.1111 42.6868L34.3997 35.3981L44.1375 44.5349L36.2479 52.4245L27.1111 42.6868Z" fill="url(#paint1_linear_254_498)"/>
<path d="M24.7712 45.0267L12.3277 57.4701C11.6204 58.1775 11.6204 59.3243 12.3277 60.0317L19.2034 66.9074C19.9108 67.6147 21.0577 67.6147 21.765 66.9074L33.9079 54.7644L24.7712 45.0267Z" fill="url(#paint2_linear_254_498)"/>
<path d="M60.9984 14.8853C61.9837 13.9 61.5329 12.2176 60.187 11.857L55.202 10.5213C54.5774 10.3539 53.9109 10.5325 53.4536 10.9897L46.3773 18.0661C45.92 18.5233 45.7415 19.1898 45.9088 19.8145L48.4989 29.4809C48.6663 30.1055 49.1542 30.5934 49.7789 30.7608L59.4453 33.3509C60.0699 33.5183 60.7364 33.3397 61.1937 32.8825L68.27 25.8061C68.7273 25.3489 68.9059 24.6824 68.7385 24.0577L67.4982 19.4288C67.1375 18.0829 65.4552 17.6321 64.4699 18.6174L62.0464 21.0409C61.6643 21.423 61.5228 21.984 61.6779 22.5016C61.833 23.0192 61.6915 23.5801 61.3094 23.9622L59.5424 25.7293C59.0717 26.2 58.3806 26.3743 57.7429 26.1832L55.2124 25.4249C54.6292 25.2502 54.1729 24.7939 53.9981 24.2106L53.2398 21.6802C53.0487 21.0425 53.2231 20.3514 53.6938 19.8807L55.4254 18.1491C55.8293 17.7452 56.4223 17.5956 56.9695 17.7596C57.5168 17.9235 58.1098 17.7739 58.5137 17.37L60.9984 14.8853Z" fill="url(#paint3_linear_254_498)"/>
<path d="M8.39456 74.5678C7.40929 75.5531 7.86009 77.2355 9.20599 77.5961L14.191 78.9318C14.8156 79.0992 15.4821 78.9206 15.9393 78.4633L23.0157 71.387C23.4729 70.9297 23.6515 70.2633 23.4842 69.6386L20.894 59.9722C20.7267 59.3475 20.2388 58.8596 19.6141 58.6923L9.94768 56.1021C9.32305 55.9348 8.65657 56.1134 8.1993 56.5706L1.12297 63.647C0.665702 64.1042 0.48712 64.7707 0.654491 65.3953L1.89481 70.0243C2.25544 71.3702 3.93783 71.821 4.9231 70.8357L7.34658 68.4122C7.72867 68.0301 7.87019 67.4692 7.71508 66.9515C7.55997 66.4339 7.7015 65.8729 8.08359 65.4908L9.85061 63.7238C10.3213 63.2531 11.0124 63.0788 11.6501 63.2699L14.1806 64.0281C14.7638 64.2029 15.2201 64.6592 15.3949 65.2424L16.1532 67.7729C16.3442 68.4106 16.1699 69.1017 15.6992 69.5724L13.9676 71.304C13.5637 71.7079 12.9706 71.8575 12.4234 71.6935C11.8762 71.5296 11.2832 71.6792 10.8793 72.0831L8.39456 74.5678Z" fill="url(#paint4_linear_254_498)"/>
<path d="M5.0076 43.7556C5.11542 44.7799 3.6207 45.4113 3.09769 44.1674C3.09019 44.1495 3.08291 44.1319 3.07531 44.1141C2.85836 43.606 -0.451459 35.661 1.03712 27.2333C2.66344 18.0258 7.65981 12.8662 9.46845 11.2608C9.87607 10.8989 10.4387 10.8056 10.9779 10.885C15.494 11.5494 17.2007 7.40188 17.1754 4.83529C17.169 4.18532 17.3307 3.51112 17.7903 3.0515L19.7367 1.10511C20.444 0.397744 21.5909 0.397744 22.2983 1.10511L28.0618 6.86867C28.7692 7.57603 28.7692 8.7229 28.0618 9.43026L25.927 11.565C25.573 11.9191 25.0853 12.1052 24.5846 12.1119C16.9913 12.2133 18.7594 17.7182 21.2261 21.4459C21.7333 22.2123 21.6803 23.2406 21.0304 23.8904L15.8943 29.0265C15.187 29.7338 14.0469 29.7215 13.2753 29.0849C10.719 26.9758 8.96006 26.849 8.33766 27.1053C4.44405 28.7447 4.49528 38.8886 5.0076 43.7556Z" fill="url(#paint5_linear_254_498)"/>
<path d="M22.82 26.8904L18.6034 31.107C17.9138 31.7966 17.896 32.862 18.5756 33.5862L58.8918 76.5478C59.6032 77.3059 60.7903 77.336 61.5121 76.6142L68.3272 69.7991C69.049 69.0773 69.0189 67.8903 68.2608 67.1789L25.2992 26.8626C24.575 26.183 23.5095 26.2009 22.82 26.8904Z" fill="url(#paint6_linear_254_498)"/>
<defs>
<linearGradient id="paint0_linear_254_498" x1="34.7212" y1="0.574585" x2="58" y2="114.5" gradientUnits="userSpaceOnUse">
<stop stop-color="#4FF700"/>
<stop offset="1" stop-color="#00FFA3"/>
</linearGradient>
<linearGradient id="paint1_linear_254_498" x1="34.7212" y1="0.574585" x2="58" y2="114.5" gradientUnits="userSpaceOnUse">
<stop stop-color="#4FF700"/>
<stop offset="1" stop-color="#00FFA3"/>
</linearGradient>
<linearGradient id="paint2_linear_254_498" x1="34.7212" y1="0.574585" x2="58" y2="114.5" gradientUnits="userSpaceOnUse">
<stop stop-color="#4FF700"/>
<stop offset="1" stop-color="#00FFA3"/>
</linearGradient>
<linearGradient id="paint3_linear_254_498" x1="34.7212" y1="0.574585" x2="58" y2="114.5" gradientUnits="userSpaceOnUse">
<stop stop-color="#4FF700"/>
<stop offset="1" stop-color="#00FFA3"/>
</linearGradient>
<linearGradient id="paint4_linear_254_498" x1="34.7212" y1="0.574585" x2="58" y2="114.5" gradientUnits="userSpaceOnUse">
<stop stop-color="#4FF700"/>
<stop offset="1" stop-color="#00FFA3"/>
</linearGradient>
<linearGradient id="paint5_linear_254_498" x1="34.7212" y1="0.574585" x2="58" y2="114.5" gradientUnits="userSpaceOnUse">
<stop stop-color="#4FF700"/>
<stop offset="1" stop-color="#00FFA3"/>
</linearGradient>
<linearGradient id="paint6_linear_254_498" x1="34.7212" y1="0.574585" x2="58" y2="114.5" gradientUnits="userSpaceOnUse">
<stop stop-color="#4FF700"/>
<stop offset="1" stop-color="#00FFA3"/>
</linearGradient>
</defs>
</svg>
